<?xml version="1.0" encoding="utf-8"?>
<!-- Generator: Adobe Illustrator 15.0.0, SVG Export Plug-In . SVG Version: 6.00 Build 0)  -->
<!DOCTYPE svg PUBLIC "-//W3C//DTD SVG 1.1//EN" "http://www.w3.org/Graphics/SVG/1.1/DTD/svg11.dtd">
<svg version="1.1" id="Layer_1" xmlns="http://www.w3.org/2000/svg" xmlns:xlink="http://www.w3.org/1999/xlink" x="0px" y="0px"
	 width="512px" height="512px" viewBox="0.5 792.5 512 512" enable-background="new 0.5 792.5 512 512" xml:space="preserve">
<g transform="matrix(1 0 0 -1 0 1638)">
	<path d="M512.5,589.5c0-70.738-24.976-131.09-74.927-181.053C387.621,358.482,327.317,333.5,256.659,333.5
		c-70.871,0-131.281,24.982-181.232,74.947C25.475,458.41,0.5,518.762,0.5,589.5s24.976,131.09,74.927,181.054
		c49.951,49.964,110.362,74.946,181.232,74.946c70.657,0,130.962-24.982,180.914-74.946C487.525,720.59,512.5,660.238,512.5,589.5z
		 M154.196,477.001v49.857c0,12.145,2.455,21.146,7.365,27.007c4.909,5.858,14.409,8.789,28.498,8.789s23.588-2.983,28.497-8.949
		c4.911-5.967,7.365-14.915,7.365-26.847v-49.857h71.405v49.857c0,11.932,2.829,20.88,8.485,26.847
		c5.655,5.966,14.783,8.949,27.378,8.949c13.022,0,22.252-2.983,27.696-8.949c5.442-5.967,8.167-14.915,8.167-26.847v-49.857h60.836
		v142.861c-11.313,0-55.875-2.451-133.683-7.351c-77.809-4.901-152.575-20.668-224.3-47.302v-88.209H154.196z M297.005,662.688
		v24.929h-0.64c-23.054-2.13-46.002-5.007-68.843-8.629V654.06c-24.335-3.836-48.351-8.523-72.045-14.063v24.929
		c-28.177-6.818-56.035-14.702-83.572-23.65v-57.209c71.725,26.208,146.651,42.294,224.781,48.261
		c78.128,5.966,122.53,8.948,133.202,8.948v57.209c-7.043,0-26.788-1.492-59.235-4.475V669.4
		C350.799,667.696,326.249,665.458,297.005,662.688z"/>
</g>
</svg>
