<?xml version="1.0" encoding="utf-8"?>
<!-- Generator: Adobe Illustrator 16.0.0, SVG Export Plug-In . SVG Version: 6.00 Build 0)  -->
<!DOCTYPE svg PUBLIC "-//W3C//DTD SVG 1.1//EN" "http://www.w3.org/Graphics/SVG/1.1/DTD/svg11.dtd">
<svg version="1.1" id="Layer_1" xmlns="http://www.w3.org/2000/svg" xmlns:xlink="http://www.w3.org/1999/xlink" x="0px" y="0px"
	 width="512px" height="512px" viewBox="0 0 512 512" enable-background="new 0 0 512 512" xml:space="preserve">
<path d="M257.717,6.011c-124.814,0-218.057-9.829-218.202,31.777c-0.323,92.999,0.383,162.662,0,248.02
	c-0.313,70.008,169.343,220.18,215.664,220.18s216.155-150.17,216.087-220.896V38.506C471.103-4.543,382.535,6.011,257.717,6.011z
	 M376.456,142.125c-8.622,0-46.789,0-95.972,0c-1.815,8.048-10.508,10.299-10.507,15.95c0,6.035,8.19,11.64,8.189,15.519
	c0.001,3.879,0,240.547-0.001,245.289c0.001,4.741-7.76,6.896-7.759,12.501c-0.001,5.604,10.347,11.403,10.346,18.537
	c0,19.83-22.849,19.398-22.849,19.398s-22.848,0.431-22.847-19.398c0.001-7.133,10.346-12.934,10.346-18.537
	c0-5.604-7.759-7.76-7.76-12.501c0.002-4.742,0.001-241.409,0-245.29c0.001-3.88,8.191-9.483,8.191-15.519
	c0-5.651-8.692-7.901-10.506-15.95c-35.7,0-64.665,0-66.658,0c-5.388,0-5.604-93.977,0-93.977c5.604-0.001,125.985,0,146.57,0
	c20.584,0,53.67,42.031,61.214,61.215C384,128.545,385.078,142.125,376.456,142.125z"/>
</svg>
