<?xml version="1.0" encoding="utf-8"?>
<!-- Generator: Adobe Illustrator 15.0.0, SVG Export Plug-In . SVG Version: 6.00 Build 0)  -->
<!DOCTYPE svg PUBLIC "-//W3C//DTD SVG 1.1//EN" "http://www.w3.org/Graphics/SVG/1.1/DTD/svg11.dtd">
<svg version="1.1" id="Layer_1" xmlns="http://www.w3.org/2000/svg" xmlns:xlink="http://www.w3.org/1999/xlink" x="0px" y="0px"
	 width="512px" height="512px" viewBox="0 0 512 512" enable-background="new 0 0 512 512" xml:space="preserve">
<circle cx="256.023" cy="165.001" r="164.874"/>
<path d="M141.201,511.873l-14.353-44.494c0,0,46.02,15.788,57.412,4.306c4.289-4.322,4.261-12.874,0-17.224
	c-11.482-11.72-112.533,1.687-143.528-163.622c-4.306-22.964-35.943,21.353-43.059,14.354c-7.295-7.177,0-71.765,43.059-71.765
	c34.447,0,86.117,134.917,215.292,134.917c129.176,0,180.846-134.917,215.293-134.917c43.058,0,50.236,64.587,43.058,71.765
	c-7.176,7.176-38.752-37.317-43.058-14.354c-30.815,164.346-132.051,151.902-143.528,163.622c-4.261,4.351-4.305,12.916,0,17.224
	c11.478,11.482,57.411-4.306,57.411-4.306l-14.353,44.494H141.201z"/>
</svg>
