<?xml version="1.0" encoding="utf-8"?>
<!-- Generator: Adobe Illustrator 15.0.0, SVG Export Plug-In . SVG Version: 6.00 Build 0)  -->
<!DOCTYPE svg PUBLIC "-//W3C//DTD SVG 1.1//EN" "http://www.w3.org/Graphics/SVG/1.1/DTD/svg11.dtd">
<svg version="1.1" id="Layer_1" xmlns="http://www.w3.org/2000/svg" xmlns:xlink="http://www.w3.org/1999/xlink" x="0px" y="0px"
	 width="512px" height="512px" viewBox="0 0 512 512" enable-background="new 0 0 512 512" xml:space="preserve">
<path d="M509.791,255.792C509.791,115.626,396.164,2,256,2C115.834,2,2.209,115.626,2.209,255.792
	c0,76.982,34.281,145.952,88.401,192.494l-56.979,58.881V512h444.74v-4.834l-56.98-58.881
	C475.511,401.743,509.791,332.773,509.791,255.792z M352.756,394.596l-17.08-20.137l-16.746,9.668l8.907,24.885
	c-17.691,8.309-37.051,13.642-57.444,15.361l-4.725-25.975h-19.336l-4.722,25.973c-20.394-1.72-39.756-7.055-57.447-15.363
	l8.907-24.881l-16.746-9.668l-17.079,20.134c-16.367-11.429-30.616-25.679-42.047-42.046l20.137-17.081l-9.668-16.743l-24.882,8.905
	c-8.309-17.692-13.644-37.052-15.36-57.446l25.969-4.722v-19.337l-25.973-4.722c1.719-20.394,7.053-39.755,15.362-57.447
	l24.882,8.906l9.668-16.745l-20.137-17.08c11.431-16.367,25.68-30.616,42.047-42.047l17.08,20.136l16.746-9.668l-8.907-24.883
	c17.69-8.309,37.053-13.644,57.448-15.362l4.722,25.973h19.336l4.723-25.973c20.394,1.718,39.755,7.052,57.443,15.36l-8.905,24.883
	l16.746,9.668l17.078-20.137c16.367,11.43,30.617,25.68,42.048,42.047l-20.136,17.079l9.668,16.746l24.883-8.907
	c8.309,17.69,13.643,37.052,15.361,57.446l-25.971,4.726v19.337l25.971,4.722c-1.719,20.395-7.053,39.755-15.361,57.446
	l-24.883-8.908l-9.668,16.745l20.136,17.082C383.372,368.914,369.123,383.164,352.756,394.596z"/>
<path d="M253.926,195.418c-4.36,0.151-5.672-5.178-6.168-7.182c-0.736-2.99-1.217-6.801-1.351-10.733
	c-0.385-11.231-0.51-24.93-0.324-35.752c0.099-5.746,0.276-10.338,0.526-13.646c0.34-4.497,0.661-8.746,4.679-8.901
	c4.053-0.139,4.664,4.085,5.313,8.556c0.477,3.284,0.969,7.853,1.461,13.576c0.931,10.786,1.746,24.465,2.134,35.694
	c0.412,12.023-1.688,18.21-6.249,18.388C253.94,195.418,253.93,195.418,253.926,195.418z"/>
<path d="M274.707,192.844c-0.478,0.019-0.955-0.036-1.413-0.163c-4.529-1.237-4.146-7.566-4-9.948
	c0.228-3.813,1.069-8.519,2.364-13.248c3.709-13.543,8.661-29.973,12.916-42.881c2.256-6.842,4.183-12.302,5.727-16.229
	c2.429-6.179,3.715-8.708,6.711-8.823c0.393-0.016,0.838,0.035,1.215,0.139c4.049,1.113,3.306,5.779,2.446,11.181
	c-0.656,4.121-1.774,9.799-3.324,16.872c-2.926,13.345-7.075,30.135-10.822,43.815C284.577,180.664,280.453,192.62,274.707,192.844z
	"/>
<path d="M290.003,207.357c-0.925-0.035-1.817-0.311-2.581-0.798c-4.152-2.649-2.927-9.201,3.63-19.471
	c5.766-9.039,13.111-19.933,19.16-28.43c11.835-16.625,13.002-16.582,15.556-16.488c0.789,0.029,1.631,0.292,2.298,0.716
	c3.848,2.458,1.688,6.829-0.216,10.688c-1.432,2.903-3.56,6.844-6.324,11.712c-5.197,9.152-12.082,20.564-17.967,29.787
	C299.921,200.771,294.615,207.527,290.003,207.357z"/>
<path d="M232.914,177.522c-2.311,0.034-8.45,0.125-13.378-18.147c-2.916-10.798-6.136-24.05-8.402-34.582
	c-3.869-17.965-5.318-24.688,2.286-26.745c0.565-0.152,1.184-0.24,1.769-0.249c5.167-0.076,8.583-0.126,23.814,56.323
	c1.073,3.972,1.763,7.956,1.95,11.217c0.377,6.706-1.69,10.715-6.149,11.918C234.239,177.41,233.498,177.513,232.914,177.522z"/>
<path d="M375.197,265.691c-8.124,0.821-30.112,0.698-45.563,0.073c-3.518-0.144-6.94-0.593-9.628-1.271
	c-1.776-0.447-7.171-1.812-6.982-6.39c0.206-5.144,7.12-5.842,9.724-6.104c2.29-0.232,4.869-0.298,7.455-0.192
	c9.902,0.401,21.966,1.192,31.477,2.071c16.248,1.5,20.488,2.095,20.289,7.016C381.799,265.025,377.337,265.477,375.197,265.691z"/>
<path d="M355.761,244.076c-2.27,0.088-9.168,0.356-10.265-5.388c-0.967-5.076,3.575-8.499,13.881-10.465
	c12.499-2.392,30.181-5.116,36.584-5.366c4.524-0.175,7.138,1.408,7.768,4.708c1.141,5.974-4.1,7.257-16.75,10.361
	c-7.438,1.823-16.908,3.884-24.717,5.375C360.018,243.73,357.771,243.998,355.761,244.076z"/>
<path d="M321.391,233.382c-3.686,0.143-5.174-1.513-5.775-2.927c-1.739-4.096,2.731-8.448,13.285-12.936
	c13.835-5.881,43.337-17.5,48.836-17.715c2.884-0.112,3.948,1.854,4.207,2.461c1.564,3.682-2.187,5.788-5.813,7.823
	c-2.72,1.527-6.561,3.501-11.413,5.867c-9.141,4.455-20.854,9.785-30.57,13.914C329.333,231.916,324.444,233.262,321.391,233.382z"
	/>
<path d="M328.278,198.615c-2.206,0.148-4.267-0.658-5.647-2.215c-2.632-2.949-2.19-6.856,1.319-11.605
	c1.772-2.402,4.302-5.107,7.119-7.616c7.524-6.701,16.612-14.408,24.314-20.615c14.516-11.696,16.177-11.808,18.104-11.938
	c1.823-0.124,3.786,0.654,5.004,2.016c4.488,5.041,0.067,9.411-11.756,21.087c-7.09,7.006-16.298,15.636-24.03,22.519
	C340.005,192.656,333.19,198.285,328.278,198.615z"/>
<path d="M373.12,322.163c-6.175,0.24-50.567-23.12-51.011-23.356c-3.467-1.845-6.682-3.951-9.044-5.929
	c-1.588-1.325-5.794-4.846-3.744-8.695c0.479-0.895,1.691-2.414,4.454-2.523c3.771-0.144,10.128,2.475,14.82,4.974
	c9.918,5.28,21.846,12.022,31.126,17.599c4.926,2.958,8.813,5.41,11.556,7.28c3.729,2.544,7.252,4.952,5.362,8.512
	C375.952,321.306,374.641,322.103,373.12,322.163z"/>
<path d="M365.634,370.581c-1.837,0.07-3.568,0.139-21.897-16.637c-9.93-9.088-22.109-20.811-31.786-30.598
	c-3.45-3.486-6.485-7.176-8.556-10.39c-1.293-2.005-4.728-7.333-1.389-10.633c0.598-0.59,1.652-1.313,3.274-1.378
	c5.688-0.22,15.687,9.59,17.633,11.558c9.975,10.09,21.82,22.691,30.908,32.889c4.817,5.405,8.576,9.807,11.168,13.078
	c3.398,4.287,6.331,7.993,3.349,10.944C367.618,370.13,366.658,370.541,365.634,370.581z"/>
<path d="M316.958,374.409c-2.575-0.059-3.752-0.089-14.311-17.611c-5.383-8.937-11.876-20.365-16.944-29.828
	c-1.829-3.409-3.305-6.895-4.156-9.814c-0.552-1.879-2.226-7.604,2.031-9.879c0.772-0.415,1.652-0.624,2.547-0.602
	c4.644,0.116,9.447,7.29,12.658,13.289c5.165,9.642,11.158,21.545,15.642,31.07c2.387,5.065,4.204,9.154,5.412,12.162
	c1.605,3.992,3.421,8.514-0.601,10.67C318.564,374.233,317.724,374.431,316.958,374.409z"/>
<path d="M406.257,303.269c-7.369,0.11-38.614-7.344-53.706-11.358c-3.977-1.059-7.773-2.45-10.692-3.92
	c-5.994-3.024-8.435-6.823-7.245-11.285c0.604-2.278,2.696-6.126,9.946-6.231c3.518-0.053,8.318,0.66,13.173,1.948
	c10.813,2.878,23.894,6.717,34.147,10.019c17.489,5.631,24.032,7.74,22.019,15.349C413.659,298.698,412.167,303.184,406.257,303.269
	z"/>
<path d="M191.412,362.987c-0.954,0.097-2.01-0.147-2.818-0.661c-4.157-2.637-2.238-6.463,5.763-20.679
	c4.682-8.316,10.883-18.692,16.188-27.077c2.548-4.026,7.465-10.845,11.775-11.28c1.137-0.115,2.234,0.137,3.17,0.73
	c3.874,2.446,1.929,7.662,1.288,9.374c-0.969,2.597-2.541,5.67-4.428,8.651c-5.161,8.161-11.749,18.02-17.184,25.724
	C194.662,362.659,193.509,362.774,191.412,362.987z"/>
<path d="M208.643,398.149c-0.688,0.026-1.417-0.082-2.069-0.31c-5.742-2.003-4.235-7.182-0.594-19.69
	c2.14-7.347,5.093-16.581,7.702-24.089c4.29-12.313,8.564-12.482,10.176-12.544c0.687-0.026,1.546,0.102,2.195,0.327
	c4.889,1.717,5.579,7.361,2.128,17.258C214.687,397.914,212.152,398.014,208.643,398.149z"/>
<path d="M243.613,392.027c-0.205,0.016-0.431,0.013-0.635-0.01c-3.979-0.379-4.042-4.681-4.103-8.837
	c-0.046-3.118,0.051-7.437,0.286-12.833c0.444-10.15,1.344-22.988,2.349-33.502c1.026-10.74,3.589-16.317,7.615-16.582
	c0.204-0.016,0.505-0.01,0.708,0.01c4.434,0.426,6.128,6.429,5.036,17.851c-1.001,10.458-2.54,23.185-4.022,33.21
	c-0.784,5.329-1.506,9.59-2.14,12.662C247.844,388.181,247.095,391.8,243.613,392.027z"/>
<path d="M282.799,410.394c-4.678,0.182-5.706-3.42-8.898-17.227c-1.815-7.853-3.852-17.834-5.312-26.054
	c-2.705-15.223,2.546-16.153,4.275-16.46c0.216-0.038,0.495-0.07,0.717-0.077c1.587-0.063,6.421-0.25,8.967,14.057
	c1.421,7.997,2.922,17.854,3.92,25.726c1.954,15.397,1.286,16.346,0.186,17.917c-0.729,1.047-1.938,1.828-3.194,2.046
	C283.249,410.36,283.016,410.385,282.799,410.394z"/>
<path d="M143.75,330.033c-1.539,0.06-2.92-0.646-3.698-1.888c-2.136-3.428,1.214-6.069,4.761-8.865
	c2.604-2.055,6.316-4.763,11.028-8.055c8.88-6.199,20.316-13.742,29.846-19.69c4.473-2.792,10.599-5.826,14.373-5.975
	c2.813-0.109,4.145,1.338,4.689,2.211c2.31,3.702-1.648,7.501-3.137,8.933c-2.221,2.136-5.283,4.457-8.62,6.534
	C192.569,303.503,149.972,329.788,143.75,330.033z"/>
<path d="M107.167,299.419c-3.228,0.126-5.159-0.936-5.74-3.16c-1.06-4.061,3.353-5.75,8.459-7.707
	c3.899-1.492,9.373-3.36,16.275-5.557c13.019-4.136,29.634-8.938,43.357-12.529c4.85-1.271,9.822-2.084,13.648-2.232
	c2.29-0.088,8.364-0.326,9.534,4.129c1.612,6.162-9.594,10.479-19.275,13.015C149.097,291.744,115.904,299.077,107.167,299.419z"/>
<path d="M179.499,265.604c-10.932,0.342-24.259,0.422-34.785,0.206c-5.598-0.115-10.073-0.3-13.301-0.555
	c-4.292-0.337-9.152-0.719-9.293-5.284c-0.162-5.052,4.366-5.675,20.092-7.054c9.334-0.819,21.398-1.56,32.272-1.983
	c1.551-0.061,3.072-0.115,4.552-0.16c3.869-0.122,7.646,0.104,10.642,0.637c1.93,0.344,7.8,1.386,7.946,6.209
	c0.059,1.795,0.229,7.272-17.629,7.966L179.499,265.604z"/>
<path d="M145.89,373.629c-1.897,0.027-3.875-0.76-5.221-2.1c-5.58-5.563-0.983-10.681,11.303-24.35
	c7.197-8.006,16.573-17.906,24.475-25.836c3.762-3.776,10.893-10.12,16.399-10.202c2.197-0.029,4.235,0.778,5.736,2.27
	c4.803,4.797,2.233,12.046-7.848,22.167c-7.751,7.776-17.13,16.734-25.087,23.963C150.202,373.566,148.578,373.59,145.89,373.629z"
	/>
<path d="M160.305,245.791c-2.59,0.026-5.669-0.214-8.678-0.68c-10.405-1.612-23.025-3.896-32.936-5.961
	c-5.268-1.096-9.459-2.063-12.456-2.872c-4.07-1.097-7.917-2.134-7.343-5.844c0.52-3.36,4.25-3.398,5.843-3.416
	c7.907-0.083,31.648,2.716,48.86,5.383c11.131,1.726,16.444,4.737,15.792,8.953C168.714,245.701,162.822,245.765,160.305,245.791z"
	/>
<path d="M227.719,205.784c-3.681,0.371-7.807-3.755-12.265-12.264c-4.607-8.779-9.947-19.622-13.94-28.295
	c-6.823-14.818-8.428-18.787-4.069-21.077c0.482-0.255,1.061-0.428,1.607-0.482c2.983-0.302,4.257,0.313,13.577,16.077
	c4.829,8.167,10.651,18.625,15.195,27.292c1.639,3.119,2.957,6.309,3.713,8.977c0.5,1.76,2.015,7.113-2.044,9.24
	C228.943,205.54,228.345,205.718,227.719,205.784z"/>
<path d="M192.705,188.292c-3.302,0.128-7.428-2.648-12.264-8.253c-25.065-29.016-24.795-32.656-24.679-34.211
	c0.108-1.461,0.835-2.918,1.946-3.873c0.946-0.813,2.214-1.309,3.457-1.357c2.115-0.082,5.313-0.207,30.894,29.408
	c6.861,7.945,8.297,13.449,4.387,16.824C195.395,187.738,194.107,188.238,192.705,188.292z"/>
<path d="M200.585,218.653c-4.466,0.174-11.984-5.211-14.178-6.866c-8.435-6.351-18.516-14.349-26.312-20.874
	c-4.141-3.467-7.393-6.308-9.665-8.447c-3.027-2.85-6.158-5.797-3.751-8.991c0.723-0.961,1.842-1.542,3.077-1.588
	c1.46-0.057,2.968-0.116,18.228,10.233c8.371,5.678,18.274,12.761,26.492,18.949c2.963,2.23,5.648,4.664,7.561,6.853
	c1.31,1.498,4.792,5.482,2.213,8.906C203.764,217.474,202.641,218.574,200.585,218.653z"/>
<path d="M179.275,232.623c-2.125,0.083-5.439-0.61-8.869-1.853c-6.284-2.279-13.859-5.244-19.774-7.739
	c-9.87-4.165-13.563-5.724-12.086-9.809c0.441-1.217,1.656-2.544,3.746-2.626c4.144-0.161,26.62,7.627,31.961,9.563
	c2.288,0.829,4.448,1.844,6.083,2.858c3.235,2.006,4.434,4.24,3.563,6.642C183.59,230.508,182.524,232.497,179.275,232.623z"/>
</svg>
