<?xml version="1.0" encoding="utf-8"?>
<!-- Generator: Adobe Illustrator 15.0.0, SVG Export Plug-In . SVG Version: 6.00 Build 0)  -->
<!DOCTYPE svg PUBLIC "-//W3C//DTD SVG 1.1//EN" "http://www.w3.org/Graphics/SVG/1.1/DTD/svg11.dtd">
<svg version="1.1" id="Layer_1" xmlns="http://www.w3.org/2000/svg" xmlns:xlink="http://www.w3.org/1999/xlink" x="0px" y="0px"
	 width="512px" height="512px" viewBox="0 0 512 512" enable-background="new 0 0 512 512" xml:space="preserve">
<path d="M256,4c41.653,0,74.976,35.405,74.976,45.818c0,8.331,24.991,8.331,24.991,20.826c0,160.364,10.413,200.324,10.413,206.182
	c0,12.496-106.215,106.215-110.38,106.215s-110.38-93.719-110.38-106.215c0-4.83,10.414-45.818,10.414-206.182
	c0-12.496,24.992-12.496,24.992-20.826C181.025,39.405,214.347,4,256,4z"/>
<path d="M385.124,81.058c33.322,0,33.322,43.736,45.818,43.736c4.033,0,8.33,11.584,8.33,18.744s0,93.719,0,97.884
	c0,4.166-49.983,45.818-54.148,45.818S380.959,81.058,385.124,81.058z"/>
<path d="M126.876,81.058c-33.322,0-33.322,43.736-45.818,43.736c-4.034,0-8.331,11.584-8.331,18.744s0,93.719,0,97.884
	c0,4.166,49.984,45.818,54.149,45.818C131.042,287.239,131.042,81.058,126.876,81.058z"/>
<path d="M458.017,243.504c6.248,0-3.124,140.579-10.413,140.579c-2.213,0-13.537,0-16.661,0c-3.257,0-13.277-28.116-16.661-28.116
	c-1.822,0-13.537-7.159-13.537-9.372c0-4.164,4.165-34.754,4.165-59.355c0-1.431,37.357-43.735,42.694-43.735
	C452.812,243.504,454.893,243.504,458.017,243.504z"/>
<path d="M53.984,243.504c-6.248,0,3.124,140.579,10.413,140.579c2.213,0,13.538,0,16.661,0c3.255,0,13.277-28.116,16.662-28.116
	c1.822,0,13.537-7.159,13.537-9.372c0-4.164-4.166-34.754-4.166-59.355c0-1.431-37.357-43.735-42.694-43.735
	C59.188,243.504,57.108,243.504,53.984,243.504z"/>
<path d="M394.842,363.256c0.886-1.485,20.956,6.769,19.439,11.455c-1.52,4.686-21.193,46.63-25.34,44.082
	c-6.668-4.099-13.568-8.439-15.271-9.719C372.801,408.424,390.89,369.893,394.842,363.256z"/>
<path d="M415.323,390.981c-0.32-1.662,13.51-1.114,14.318-0.13c2.995,3.645-14.32,59.454-19.265,59.355
	C403.868,450.076,417.796,403.868,415.323,390.981z"/>
<path d="M117.157,363.256c-0.886-1.485-20.957,6.769-19.438,11.455c1.518,4.686,21.192,46.63,25.339,44.082
	c6.667-4.099,13.567-8.439,15.272-9.719C139.198,408.424,121.109,369.893,117.157,363.256z"/>
<path d="M96.678,390.981c0.319-1.662-13.511-1.114-14.318-0.13c-2.995,3.645,14.319,59.454,19.265,59.355
	C108.133,450.076,94.205,403.868,96.678,390.981z"/>
<path d="M280.992,384.083c0,0,85.388-81.354,85.388-78.1c0,40.611-12.626,87.471-16.661,87.471s-11.365-4.71-18.743-9.371
	c-7.832-4.946-25.328-5.575-33.322,0c-6.874,4.793-12.496,9.371-16.661,9.371C279.3,393.454,279.823,385.703,280.992,384.083z"/>
<path d="M289.323,393.454c8.331,0,10.413,25.45,24.992,25.45c14.578,0,16.661-25.45,24.991-25.45
	c10.413,0,18.874,14.579,20.826,25.45c6.637,36.96,6.248,63.583-10.413,63.583c-2.993,0,0,25.513-35.404,25.513
	c-33.322,0-28.507-25.513-33.322-25.513c-16.662,0-16.188-26.478-10.414-63.583C272.271,408.033,280.992,393.454,289.323,393.454z"
	/>
<polyline points="297.654,393.454 314.315,384.083 330.976,393.454 314.315,412.198 "/>
<path d="M231.009,384.083c0,0-85.389-81.354-85.389-78.1c0,40.611,12.626,87.471,16.661,87.471c4.035,0,11.365-4.71,18.744-9.371
	c7.83-4.946,25.326-5.575,33.322,0c6.872,4.793,12.496,9.371,16.661,9.371C232.7,393.454,232.178,385.703,231.009,384.083z"/>
<path d="M222.678,393.454c-8.331,0-10.413,25.45-24.992,25.45s-16.661-25.45-24.992-25.45c-10.414,0-18.874,14.579-20.827,25.45
	c-6.637,36.96-6.248,63.583,10.413,63.583c2.994,0,0,25.513,35.405,25.513c33.322,0,28.506-25.513,33.322-25.513
	c16.661,0,16.188-26.478,10.413-63.583C239.73,408.033,231.009,393.454,222.678,393.454z"/>
<polyline points="214.347,393.454 197.686,384.083 181.025,393.454 197.686,412.198 "/>
<polygon fill="#FFFFFF" points="256,93.554 233.091,121.669 256,149.785 278.909,121.669 "/>
<polygon fill="#FFFFFF" points="266.413,193.521 256,181.025 245.587,193.521 256,206.017 "/>
</svg>
