<?xml version="1.0" encoding="utf-8"?>
<!-- Generator: Adobe Illustrator 15.0.0, SVG Export Plug-In . SVG Version: 6.00 Build 0)  -->
<!DOCTYPE svg PUBLIC "-//W3C//DTD SVG 1.1//EN" "http://www.w3.org/Graphics/SVG/1.1/DTD/svg11.dtd">
<svg version="1.1" id="Layer_1" xmlns="http://www.w3.org/2000/svg" xmlns:xlink="http://www.w3.org/1999/xlink" x="0px" y="0px"
	 width="512px" height="512px" viewBox="0 0 512 512" enable-background="new 0 0 512 512" xml:space="preserve">
<path d="M509.791,255.792C509.791,115.626,396.165,2,256,2C115.834,2,2.209,115.626,2.209,255.792
	c0,76.982,34.281,145.952,88.402,192.494l-56.98,58.881V512h444.74v-4.834l-56.98-58.881
	C475.511,401.743,509.791,332.773,509.791,255.792z M352.756,394.596l-17.08-20.137l-16.746,9.668l8.907,24.884
	c-17.691,8.309-37.052,13.643-57.445,15.361l-4.724-25.974h-19.336l-4.722,25.973c-20.394-1.72-39.756-7.055-57.447-15.363
	l8.907-24.881l-16.746-9.668l-17.079,20.134c-16.367-11.429-30.616-25.679-42.047-42.046l20.137-17.08l-9.668-16.744l-24.882,8.905
	c-8.309-17.691-13.644-37.052-15.36-57.446l25.969-4.722v-19.337l-25.973-4.722c1.719-20.394,7.053-39.755,15.362-57.447
	l24.882,8.906l9.668-16.745l-20.137-17.08c11.431-16.367,25.68-30.616,42.047-42.047l17.08,20.136l16.746-9.668l-8.907-24.883
	c17.69-8.309,37.053-13.644,57.448-15.362l4.722,25.973h19.336l4.723-25.973c20.394,1.718,39.755,7.052,57.445,15.36l-8.906,24.883
	l16.746,9.668l17.079-20.137c16.366,11.43,30.616,25.68,42.047,42.047l-20.136,17.079l9.668,16.746l24.883-8.907
	c8.309,17.69,13.643,37.052,15.361,57.446l-25.972,4.726v19.337l25.972,4.722c-1.719,20.395-7.053,39.755-15.361,57.446
	l-24.883-8.908l-9.668,16.746l20.136,17.081C383.372,368.914,369.123,383.164,352.756,394.596z"/>
</svg>
