<?xml version="1.0" encoding="utf-8"?>
<!-- Generator: Adobe Illustrator 15.0.0, SVG Export Plug-In . SVG Version: 6.00 Build 0)  -->
<!DOCTYPE svg PUBLIC "-//W3C//DTD SVG 1.1//EN" "http://www.w3.org/Graphics/SVG/1.1/DTD/svg11.dtd">
<svg version="1.1" id="Layer_1" xmlns="http://www.w3.org/2000/svg" xmlns:xlink="http://www.w3.org/1999/xlink" x="0px" y="0px"
	 width="512px" height="512px" viewBox="0 0 512 512" enable-background="new 0 0 512 512" xml:space="preserve">
<path d="M509.791,255.792C509.791,115.626,396.164,2,256,2C115.834,2,2.209,115.626,2.209,255.792
	c0,76.982,34.281,145.952,88.401,192.494l-56.979,58.881V512h444.74v-4.834l-56.98-58.881
	C475.511,401.743,509.791,332.773,509.791,255.792z M352.756,394.596l-17.08-20.137l-16.746,9.668l8.907,24.885
	c-17.691,8.309-37.051,13.642-57.444,15.361l-4.725-25.975h-19.336l-4.722,25.973c-20.394-1.72-39.756-7.055-57.447-15.363
	l8.907-24.881l-16.746-9.668l-17.079,20.134c-16.367-11.429-30.616-25.679-42.047-42.046l20.137-17.081l-9.668-16.743l-24.882,8.905
	c-8.309-17.692-13.644-37.052-15.36-57.446l25.969-4.722v-19.337l-25.973-4.722c1.719-20.394,7.053-39.755,15.362-57.447
	l24.882,8.906l9.668-16.745l-20.137-17.08c11.431-16.367,25.68-30.616,42.047-42.047l17.08,20.136l16.746-9.668l-8.907-24.883
	c17.69-8.309,37.053-13.644,57.448-15.362l4.722,25.973h19.336l4.723-25.973c20.394,1.718,39.755,7.052,57.443,15.36l-8.905,24.883
	l16.746,9.668l17.078-20.137c16.367,11.43,30.617,25.68,42.048,42.047l-20.136,17.079l9.668,16.746l24.883-8.907
	c8.309,17.69,13.643,37.052,15.361,57.446l-25.971,4.726v19.337l25.971,4.722c-1.719,20.395-7.053,39.755-15.361,57.446
	l-24.883-8.908l-9.668,16.745l20.136,17.082C383.372,368.914,369.123,383.164,352.756,394.596z"/>
<path d="M272.073,202.426c-1.335,5.153-3.492,9.594-4.658,9.292c-1.164-0.302-0.894-5.23,0.44-10.383
	c3.986-15.392,10.592-36.994,11.757-36.692C280.775,164.944,276.062,187.035,272.073,202.426z"/>
<path d="M290.989,204.616c-3.548,5.715-7.818,10.262-9.106,9.46c-1.292-0.801,0.883-6.647,4.431-12.362
	c10.592-17.073,26.672-40.656,27.965-39.855C315.566,162.661,301.582,187.542,290.989,204.616z"/>
<path d="M261.134,176.043c-0.2,5.919-1.468,11.264-2.806,11.217c-1.337-0.046-2.237-5.463-2.039-11.382
	c0.602-17.682,2.54-42.742,3.875-42.696C261.502,133.229,261.735,158.361,261.134,176.043z"/>
<path d="M297.82,153.975c-2.094,5.39-4.861,9.958-5.921,9.544c-1.062-0.412-0.016-5.647,2.084-11.039
	c6.265-16.106,16.017-38.629,17.076-38.216C312.117,114.677,304.085,137.87,297.82,153.975z"/>
<path d="M274.036,140.132c-0.427,2.919-1.345,5.494-2.004,5.399c-0.659-0.096-0.808-2.827-0.38-5.746
	c1.268-8.717,3.6-21.013,4.258-20.917S275.304,131.414,274.036,140.132z"/>
<path d="M290.319,223.704c-3.14,3.172-6.571,5.48-7.29,4.771c-0.717-0.709,1.555-4.168,4.697-7.339
	c9.376-9.478,23.267-22.352,23.983-21.643C312.423,200.201,299.695,214.227,290.319,223.704z"/>
<path d="M257.172,216.277c0,2.865-0.524,5.47-1.172,5.47c-0.648,0-1.174-2.604-1.174-5.47c0-8.56,0.526-20.708,1.174-20.708
	C256.648,195.569,257.172,207.719,257.172,216.277z"/>
<path d="M322.132,210.833c-4.319,3.176-8.828,5.273-9.546,4.298c-0.718-0.977,2.629-4.655,6.947-7.831
	c12.902-9.488,31.799-22.165,32.516-21.188C352.765,187.086,335.033,201.344,322.132,210.833z"/>
<path d="M328.238,181.115c-4.623,5.044-9.751,8.785-10.892,7.739s2.14-6.479,6.763-11.523c13.814-15.072,34.342-35.616,35.481-34.57
	C360.728,143.807,342.049,166.043,328.238,181.115z"/>
<path d="M354.517,173.992c-2.593,2.199-5.35,3.726-5.847,3.14c-0.498-0.586,1.456-3.062,4.047-5.261
	c7.743-6.572,19.135-15.425,19.632-14.838C372.845,157.619,362.26,167.42,354.517,173.992z"/>
<path d="M367.952,217.921c-5.32,1.917-10.511,2.685-10.946,1.484c-0.433-1.204,4.054-3.921,9.379-5.838
	c15.897-5.729,38.813-12.882,39.249-11.68C406.067,203.09,383.851,212.193,367.952,217.921z"/>
<path d="M351.711,208.131c-3.334,1.721-6.679,2.674-7.068,1.921c-0.389-0.754,2.326-2.928,5.662-4.647
	c9.959-5.14,24.411-11.824,24.801-11.071C375.496,195.086,361.672,202.991,351.711,208.131z"/>
<path d="M298.693,275.199c-3.875-1.593-7.109-3.751-6.747-4.627c0.36-0.878,4.174-0.137,8.049,1.456
	c11.579,4.76,27.723,12.227,27.363,13.104C326.995,286.007,310.271,279.959,298.693,275.199z"/>
<path d="M361.62,294.96c-4.441-1.562-8.194-3.795-7.841-4.799c0.353-1.003,4.677-0.396,9.119,1.164
	c13.271,4.664,31.817,12.1,31.464,13.103C394.011,305.431,374.892,299.624,361.62,294.96z"/>
<path d="M329.334,277.387c-4.444-1.19-8.267-3.087-7.998-4.093c0.27-1.003,4.527-0.734,8.974,0.455
	c13.277,3.557,31.904,9.421,31.635,10.424S342.61,280.944,329.334,277.387z"/>
<path d="M308.101,262.035c-2.584-0.258-4.887-0.964-4.826-1.548c0.059-0.584,2.452-0.823,5.036-0.566
	c7.721,0.766,18.627,2.327,18.568,2.912C326.823,263.416,315.818,262.801,308.101,262.035z"/>
<path d="M369.014,276.349c-6.329-1.004-11.9-3.073-11.673-4.504c0.229-1.431,6.164-1.679,12.493-0.675
	c18.912,2.995,45.567,8.405,45.343,9.837C414.949,282.437,387.924,279.344,369.014,276.349z"/>
<path d="M359.244,255.792c-3.901,0.06-7.455-0.6-7.467-1.479c-0.017-0.881,3.517-1.649,7.419-1.71
	c11.648-0.18,28.191,0.279,28.204,1.159C387.414,254.641,370.892,255.611,359.244,255.792z"/>
<path d="M314.022,251.204c-4.965,0.569-9.583,0.176-9.712-0.945c-0.127-1.121,4.281-2.547,9.247-3.117
	c14.829-1.699,35.984-3.2,36.115-2.078C349.799,246.184,328.852,249.504,314.022,251.204z"/>
<path d="M350.05,237.355c-4.371,0.943-8.516,1.002-8.729,0.014c-0.213-0.987,3.587-2.646,7.957-3.589
	c13.055-2.82,31.756-6.019,31.969-5.031C381.461,229.735,363.103,234.537,350.05,237.355z"/>
<path d="M314.324,231.727c-2.888,1.259-5.739,1.877-6.023,1.226s2.107-2.325,4.993-3.586c8.624-3.763,21.086-8.578,21.374-7.926
	C334.948,222.092,322.947,227.964,314.324,231.727z"/>
<path d="M294.179,296.396c-3.796-3.732-6.563-7.821-5.719-8.679c0.843-0.856,4.978,1.841,8.774,5.572
	c11.333,11.15,26.738,27.67,25.896,28.526C322.289,322.673,305.514,307.546,294.179,296.396z"/>
<path d="M282.823,311.682c-3.177-5.929-4.976-11.901-3.64-12.617c1.341-0.719,5.313,4.091,8.49,10.018
	c9.489,17.711,21.871,43.432,20.529,44.147C306.865,353.945,292.313,329.392,282.823,311.682z"/>
<path d="M322.495,300.115c-5.026-3.135-9.021-6.904-8.313-8.039c0.708-1.134,5.851,0.795,10.876,3.928
	c15.012,9.363,35.746,23.57,35.038,24.705C359.389,321.843,337.508,309.477,322.495,300.115z"/>
<path d="M323.261,342.919c-3.619-4.511-6.189-9.189-5.303-9.902c0.888-0.71,4.897,2.814,8.517,7.327
	c10.815,13.479,25.444,33.187,24.557,33.9C350.144,374.952,334.076,356.399,323.261,342.919z"/>
<path d="M347.142,329.245c-2.314-1.827-4.086-3.911-3.671-4.436c0.412-0.524,2.85,0.714,5.164,2.543
	c6.916,5.457,16.397,13.624,15.986,14.147C364.207,342.024,354.06,334.701,347.142,329.245z"/>
<path d="M266.629,301.558c-1.18-4.306-1.46-8.434-0.487-8.699c0.973-0.265,2.831,3.431,4.009,7.736
	c3.519,12.858,7.723,31.325,6.75,31.592C275.927,332.453,270.148,314.417,266.629,301.558z"/>
<path d="M289.635,276.565c-2.484-1.436-4.476-3.192-4.154-3.752c0.324-0.561,2.844,0.288,5.324,1.721
	c7.411,4.279,17.67,10.809,17.347,11.369C307.83,286.464,297.047,280.845,289.635,276.565z"/>
<path d="M261.865,335.543c-0.587-5.329-0.152-10.282,1.052-10.416c1.204-0.133,2.717,4.604,3.309,9.932
	c1.766,15.921,3.295,38.62,2.089,38.755C267.112,373.946,263.631,351.463,261.865,335.543z"/>
<path d="M284.549,355.691c-2.057-6.524-2.734-12.837-1.257-13.304c1.476-0.465,4.542,5.094,6.599,11.62
	c6.145,19.5,13.671,47.549,12.195,48.014S290.695,375.189,284.549,355.691z"/>
<path d="M277.576,382.01c-0.609-3.346-0.551-6.496,0.204-6.633c0.757-0.14,1.923,2.791,2.534,6.135
	c1.82,9.991,3.79,24.284,3.034,24.421C282.594,406.069,279.396,392.001,277.576,382.01z"/>
<path d="M232.816,371.681c1.001-5.564,2.933-10.447,4.19-10.221c1.259,0.228,1.368,5.471,0.367,11.04
	c-2.992,16.635-8.254,40.057-9.513,39.829C226.602,412.103,229.825,388.313,232.816,371.681z"/>
<path d="M249.416,362.513c0.176-3.749,1.024-7.125,1.871-7.084c0.848,0.041,1.373,3.482,1.194,7.228
	c-0.53,11.196-1.966,27.053-2.813,27.017C248.82,389.631,248.886,373.706,249.416,362.513z"/>
<path d="M217.848,283.059c3.317-2.559,6.803-4.276,7.38-3.528c0.578,0.75-1.968,3.685-5.288,6.243
	c-9.913,7.647-24.45,17.892-25.029,17.145C194.332,302.168,207.934,290.709,217.848,283.059z"/>
<path d="M169.266,327.673c3.574-3.063,7.383-5.198,8.077-4.39c0.691,0.807-1.995,4.248-5.568,7.314
	c-10.675,9.161-26.387,21.503-27.08,20.696C144.002,350.489,158.591,336.834,169.266,327.673z"/>
<path d="M200.63,308.501c3.254-3.253,6.808-5.616,7.543-4.881c0.735,0.734-1.626,4.289-4.881,7.542
	c-9.719,9.72-24.111,22.921-24.846,22.183C177.711,332.613,190.909,318.221,200.63,308.501z"/>
<path d="M224.542,297.79c1.514-2.108,3.277-3.75,3.754-3.408c0.476,0.344-0.516,2.541-2.031,4.647
	c-4.522,6.304-11.33,14.969-11.806,14.627C213.984,313.313,220.019,304.092,224.542,297.79z"/>
<path d="M181.687,343.384c4.034-4.98,8.612-8.769,9.738-7.857c1.127,0.911-1.628,6.177-5.663,11.156
	c-12.05,14.881-30.064,35.258-31.193,34.347C153.446,380.118,169.637,358.263,181.687,343.384z"/>
<path d="M204.376,345.201c1.896-3.405,4.246-6.155,5.014-5.726c0.769,0.427-0.33,3.873-2.229,7.279
	c-5.669,10.178-14.339,24.274-15.108,23.844C191.285,370.168,198.706,355.38,204.376,345.201z"/>
<path d="M230.962,308.334c1.989-4.586,4.64-8.387,5.673-7.937c1.036,0.449,0.067,4.981-1.924,9.566
	c-5.945,13.691-15.222,32.764-16.26,32.313C217.418,341.826,225.015,322.027,230.962,308.334z"/>
<path d="M224.938,346.457c1.368-4.256,3.391-7.875,4.353-7.566c0.962,0.311,0.498,4.429-0.87,8.688
	c-4.086,12.715-10.668,30.509-11.628,30.199C215.831,377.471,220.853,359.173,224.938,346.457z"/>
<path d="M247.675,318.334c0.352-3.129,1.244-5.909,1.951-5.829c0.707,0.079,0.96,2.988,0.609,6.119
	c-1.052,9.347-3.115,22.548-3.823,22.472C245.706,341.014,246.626,327.683,247.675,318.334z"/>
<path d="M201.746,268.552c5.13-1.422,10.054-1.772,10.374-0.615c0.322,1.159-4.082,3.392-9.213,4.81
	c-15.324,4.243-37.333,9.324-37.653,8.165C164.934,279.753,186.423,272.791,201.746,268.552z"/>
<path d="M194.187,251.075c6.724,0.212,12.795,1.639,12.747,3.157c-0.048,1.519-6.199,2.556-12.918,2.342
	c-20.083-0.637-48.545-2.774-48.497-4.295C145.565,250.761,174.103,250.435,194.187,251.075z"/>
<path d="M184.366,291.214c5.227-2.785,10.488-4.357,11.119-3.177c0.628,1.182-3.612,4.668-8.84,7.454
	c-15.614,8.318-38.286,19.17-38.913,17.988C147.1,312.3,168.752,299.534,184.366,291.214z"/>
<path d="M146.914,270.474c5.717-0.881,11.055-0.766,11.227,0.358c0.176,1.126-4.885,2.836-10.599,3.713
	c-17.08,2.627-41.464,5.44-41.635,4.316C105.732,277.737,129.833,273.101,146.914,270.474z"/>
<path d="M146.815,297.993c2.742-1.091,5.43-1.584,5.678-0.963c0.247,0.618-2.042,2.112-4.784,3.203
	c-8.183,3.26-19.999,7.385-20.246,6.768C127.216,306.382,138.631,301.254,146.815,297.993z"/>
<path d="M211.052,242.111c4.317,1.133,8.034,2.952,7.779,3.928c-0.258,0.975-4.389,0.736-8.704-0.397
	c-12.895-3.383-30.992-8.976-30.736-9.952C179.647,234.716,198.157,238.728,211.052,242.111z"/>
<path d="M221.194,274.531c2.481-1.434,5-2.28,5.322-1.72c0.326,0.561-1.67,2.316-4.151,3.749c-7.413,4.279-18.199,9.898-18.521,9.34
	C203.521,285.338,213.78,278.811,221.194,274.531z"/>
<path d="M184.002,220.994c4.91,2.154,8.979,5.01,8.494,6.119c-0.486,1.109-5.348,0.05-10.255-2.102
	c-14.667-6.432-35.092-16.458-34.606-17.568C148.12,206.334,169.333,214.562,184.002,220.994z"/>
<path d="M155.212,230.562c6.68,1.482,12.483,4.054,12.148,5.563c-0.333,1.51-6.679,1.385-13.361-0.096
	c-19.958-4.43-48.013-11.937-47.679-13.447C106.655,221.073,135.252,226.134,155.212,230.562z"/>
<path d="M135.905,211.365c3.198,1.143,5.901,2.77,5.643,3.493c-0.259,0.725-3.379,0.27-6.58-0.875
	c-9.563-3.42-22.925-8.861-22.666-9.584C112.562,203.676,126.343,207.943,135.905,211.365z"/>
<path d="M167.234,177.766c4.32,3.65,7.579,7.76,6.756,8.737c-0.825,0.978-5.422-1.552-9.744-5.203
	c-12.912-10.907-30.562-27.177-29.736-28.153C135.334,152.172,154.324,166.859,167.234,177.766z"/>
<path d="M166.872,196.726c3.155,2.027,5.655,4.45,5.198,5.162c-0.458,0.714-3.699-0.551-6.856-2.579
	c-9.431-6.056-22.445-15.231-21.987-15.944C143.685,182.65,157.441,190.669,166.872,196.726z"/>
<path d="M251.464,209.116c0.558,4.153,0.303,8.03-0.634,8.156c-0.939,0.125-2.208-3.547-2.764-7.702
	c-1.667-12.408-3.269-30.12-2.331-30.246C246.673,179.198,249.798,196.706,251.464,209.116z"/>
<path d="M237.119,144.735c0.867,4.627,0.81,8.994-0.235,9.189c-1.047,0.197-2.683-3.853-3.55-8.48
	c-2.595-13.824-5.429-33.604-4.383-33.8C229.993,111.448,234.524,130.91,237.119,144.735z"/>
<path d="M238.041,181.484c1.19,4.445,1.459,8.704,0.454,8.972s-2.898-3.553-4.092-8c-3.557-13.277-7.793-32.34-6.789-32.61
	C228.619,149.579,234.483,168.206,238.041,181.484z"/>
<path d="M235.36,207.548c1.068,2.366,1.608,4.713,1.074,4.955c-0.534,0.24-1.939-1.714-3.01-4.08
	c-3.195-7.068-7.295-17.296-6.761-17.537C227.198,190.644,232.164,200.479,235.36,207.548z"/>
<path d="M217.303,147.637c2.296,5.984,3.29,11.843,1.938,12.362c-1.353,0.519-4.534-4.499-6.831-10.482
	c-6.86-17.877-15.5-43.666-14.148-44.186C199.614,104.813,210.443,129.761,217.303,147.637z"/>
<path d="M204.385,166.376c2,3.347,3.206,6.756,2.45,7.207c-0.755,0.453-3.188-2.222-5.189-5.57
	c-5.978-9.999-13.852-24.556-13.096-25.008C189.304,142.553,198.405,156.378,204.385,166.376z"/>
<path d="M223.019,207.835c2.974,4.017,4.944,8.211,4.037,8.884c-0.908,0.672-4.348-2.434-7.322-6.45
	c-8.888-11.996-20.765-29.566-19.857-30.238C200.785,179.358,214.133,195.839,223.019,207.835z"/>
<path d="M193.014,183.555c3.002,3.313,5.125,6.874,4.376,7.553c-0.748,0.678-4.083-1.784-7.086-5.098
	c-8.967-9.896-21.089-24.493-20.339-25.171C170.712,160.162,184.047,173.659,193.014,183.555z"/>
<path d="M206.001,217.31c2.533,1.87,4.494,4.032,4.073,4.604c-0.423,0.573-3.068-0.662-5.604-2.531
	c-7.569-5.586-17.969-13.973-17.548-14.547C187.344,204.263,198.43,211.725,206.001,217.31z"/>
</svg>
