<?xml version="1.0" encoding="utf-8"?>
<!-- Generator: Adobe Illustrator 15.0.0, SVG Export Plug-In . SVG Version: 6.00 Build 0)  -->
<!DOCTYPE svg PUBLIC "-//W3C//DTD SVG 1.1//EN" "http://www.w3.org/Graphics/SVG/1.1/DTD/svg11.dtd">
<svg version="1.1" id="Layer_1" xmlns="http://www.w3.org/2000/svg" xmlns:xlink="http://www.w3.org/1999/xlink" x="0px" y="0px"
	 width="512px" height="512px" viewBox="0 0 512 512" enable-background="new 0 0 512 512" xml:space="preserve">
<path d="M477.55,257.444c-4.347-19.009,7.543-37.942,26.552-42.288c1.512-0.346,3.021-0.578,4.524-0.722
	c-2.405-14.733-6.067-29.042-10.874-42.817c-14.249,6.117-31.372,2.277-41.509-10.429c-12.162-15.242-9.665-37.458,5.578-49.62
	c1.208-0.965,2.466-1.827,3.754-2.608c-8.489-12.077-17.987-23.394-28.387-33.813c-10.188,11.661-27.261,15.611-41.89,8.567
	c-17.569-8.458-24.955-29.558-16.498-47.127c0.675-1.399,1.438-2.726,2.263-3.994c-12.777-7.168-26.231-13.269-40.244-18.189
	c-4.105,14.952-17.785,25.94-34.041,25.94c-19.498,0-35.306-15.807-35.306-35.306c0-1.54,0.109-3.053,0.3-4.541
	C266.553,0.181,261.298,0,256.001,0c-9.642,0-19.154,0.551-28.52,1.59c2.771,15.236-4.778,31.053-19.406,38.106
	c-17.563,8.469-38.668,1.095-47.137-16.471c-0.678-1.406-1.243-2.834-1.719-4.278c-13.74,5.616-26.88,12.388-39.306,20.201
	c9.116,12.525,9.179,30.057-0.942,42.761c-12.15,15.251-34.364,17.765-49.617,5.612c-1.205-0.96-2.321-1.99-3.367-3.068
	c-9.861,10.916-18.788,22.689-26.669,35.188c13.648,7.331,21.309,23.101,17.7,38.939c-4.331,19.011-23.258,30.912-42.271,26.578
	c-1.521-0.347-2.991-0.796-4.417-1.323c-4.1,13.98-7.036,28.457-8.703,43.319c15.472,0.69,29.208,11.573,32.828,27.403
	c4.345,19.008-7.543,37.94-26.554,42.287c-1.511,0.344-3.021,0.576-4.524,0.722c2.406,14.733,6.067,29.043,10.874,42.816
	c14.248-6.116,31.372-2.276,41.51,10.431c12.16,15.243,9.664,37.457-5.579,49.619c-1.209,0.964-2.466,1.825-3.755,2.607
	c8.489,12.077,17.987,23.395,28.388,33.812c10.189-11.66,27.26-15.609,41.889-8.566c17.569,8.458,24.954,29.559,16.497,47.128
	c-0.674,1.399-1.437,2.727-2.263,3.994c12.779,7.167,26.233,13.269,40.244,18.188c4.105-14.952,17.786-25.941,34.042-25.941
	c19.499,0,35.306,15.809,35.306,35.308c0,1.539-0.109,3.053-0.3,4.54c5.218,0.317,10.471,0.498,15.77,0.498
	c9.643,0,19.156-0.552,28.521-1.59c-2.771-15.237,4.777-31.053,19.404-38.104c17.565-8.471,38.67-1.095,47.138,16.469
	c0.678,1.405,1.243,2.837,1.721,4.277c13.739-5.615,26.88-12.388,39.305-20.2c-9.117-12.526-9.18-30.058,0.941-42.762
	c12.15-15.251,34.365-17.764,49.616-5.614c1.206,0.961,2.323,1.989,3.369,3.068c9.861-10.917,18.787-22.688,26.67-35.188
	c-13.649-7.331-21.312-23.101-17.701-38.937c4.332-19.014,23.259-30.913,42.27-26.581c1.521,0.347,2.99,0.797,4.418,1.323
	c4.101-13.981,7.036-28.457,8.703-43.319C494.904,284.156,481.166,273.274,477.55,257.444z M256.001,411.236
	c-85.733,0-155.234-69.5-155.234-155.234c0-85.733,69.5-155.233,155.234-155.233c85.733,0,155.234,69.5,155.234,155.233
	S341.734,411.236,256.001,411.236z"/>
<path d="M342.274,286.998c0-11.233,8.523-20.472,19.454-21.607c-2.672-12.588-7.637-24.322-14.427-34.767
	c-8.533,6.909-21.081,6.4-29.015-1.536c-7.938-7.937-8.447-20.486-1.537-29.016c-10.444-6.789-22.178-11.753-34.767-14.424
	c-1.136,10.931-10.375,19.454-21.607,19.454c-11.231,0-20.469-8.523-21.607-19.454c-12.589,2.671-24.323,7.636-34.769,14.426
	c6.91,8.532,6.4,21.08-1.534,29.017c-7.938,7.938-20.485,8.446-29.015,1.536c-6.789,10.446-11.753,22.179-14.424,34.768
	c10.931,1.136,19.453,10.374,19.455,21.604c-0.001,11.233-8.524,20.473-19.455,21.608c2.672,12.589,7.637,24.321,14.426,34.767
	c8.532-6.908,21.081-6.4,29.015,1.534c7.939,7.938,8.449,20.487,1.537,29.019c10.444,6.787,22.179,11.751,34.769,14.424
	c1.138-10.932,10.375-19.455,21.606-19.455c11.233,0,20.473,8.523,21.607,19.455c12.589-2.672,24.32-7.637,34.768-14.424
	c-6.91-8.536-6.402-21.085,1.534-29.019c7.937-7.938,20.485-8.447,29.018-1.537c6.787-10.444,11.753-22.176,14.424-34.767
	C350.797,307.469,342.274,298.227,342.274,286.998z M260.377,341.875c-30.307,0-54.875-24.57-54.875-54.876
	c0-30.307,24.568-54.875,54.875-54.875c30.306,0,54.875,24.57,54.875,54.875S290.683,341.875,260.377,341.875z"/>
<circle cx="260.377" cy="286.999" r="25.626"/>
</svg>
