<?xml version="1.0" encoding="utf-8"?>
<!-- Generator: Adobe Illustrator 16.0.0, SVG Export Plug-In . SVG Version: 6.00 Build 0)  -->
<!DOCTYPE svg PUBLIC "-//W3C//DTD SVG 1.1//EN" "http://www.w3.org/Graphics/SVG/1.1/DTD/svg11.dtd">
<svg version="1.1" id="Layer_1" xmlns="http://www.w3.org/2000/svg" xmlns:xlink="http://www.w3.org/1999/xlink" x="0px" y="0px"
	 width="512px" height="512px" viewBox="0 0 512 512" enable-background="new 0 0 512 512" xml:space="preserve">
<path d="M510.13,296.734c0-114.68-127.065-175.598-80.185-221.285c8.625-10.092,73.796,23.681,28.791-47.319
	C451.048,16,256,16,256,16S60.954,16,53.264,28.13c-45.005,71,20.167,37.227,28.791,47.319
	c46.881,45.688-80.183,106.605-80.183,221.285c0,101.101,75.55,135.737,80.183,142.019c8.257,11.191-22.019,57.247,0,57.247
	c55.08,0,54.495-21.25,66.055-21.25c15.401,0,46.206,13.211,107.89,13.211c61.687,0,92.49-13.211,107.89-13.211
	c11.56,0,10.976,21.25,66.056,21.25c22.018,0-8.258-46.056,0-57.247C434.579,432.472,510.13,397.835,510.13,296.734z"/>
</svg>
