<?xml version="1.0" encoding="utf-8"?>
<!-- Generator: Adobe Illustrator 15.0.0, SVG Export Plug-In . SVG Version: 6.00 Build 0)  -->
<!DOCTYPE svg PUBLIC "-//W3C//DTD SVG 1.1//EN" "http://www.w3.org/Graphics/SVG/1.1/DTD/svg11.dtd">
<svg version="1.1" id="Layer_1" xmlns="http://www.w3.org/2000/svg" xmlns:xlink="http://www.w3.org/1999/xlink" x="0px" y="0px"
	 width="512px" height="512px" viewBox="0 0 512 512" enable-background="new 0 0 512 512" xml:space="preserve">
<g transform="matrix(1 0 0 -1 0 1638)">
	<path d="M402.403,1558.723c25.483-39.651,29.884-87.476,13.2-143.469c-16.913-55.994-49.996-103.875-99.245-143.642
		c-49.252-39.768-100.504-59.65-153.755-59.65c-52.794,0-91.933,19.884-117.416,59.65c-25.482,39.766-29.768,87.647-12.854,143.642
		c16.684,55.993,49.708,103.816,99.073,143.469c49.366,39.653,100.446,59.479,153.241,59.479
		C337.667,1618.202,376.92,1598.376,402.403,1558.723z M435.143,1592.146c10.285-9.142,19.313-19.996,27.083-32.566
		c30.396-47.08,35.653-104.104,15.77-171.066c-20.112-66.964-59.595-124.157-118.445-171.581
		c-58.85-47.423-119.927-71.135-183.235-71.135c-59.879,0-105.017,21.369-135.414,64.107c28.798-25.826,66.508-38.739,113.13-38.739
		c63.079,0,124.101,23.712,183.065,71.136c58.965,47.423,98.389,104.616,118.271,171.58
		c20.112,66.735,14.971,123.758-15.427,171.067C438.343,1587.463,436.742,1589.862,435.143,1592.146z"/>
</g>
</svg>
