<?xml version="1.0" encoding="utf-8"?>
<!-- Generator: Adobe Illustrator 15.0.0, SVG Export Plug-In . SVG Version: 6.00 Build 0)  -->
<!DOCTYPE svg PUBLIC "-//W3C//DTD SVG 1.1//EN" "http://www.w3.org/Graphics/SVG/1.1/DTD/svg11.dtd">
<svg version="1.1" id="Layer_1" xmlns="http://www.w3.org/2000/svg" xmlns:xlink="http://www.w3.org/1999/xlink" x="0px" y="0px"
	 width="512px" height="512px" viewBox="0 0 512 512" enable-background="new 0 0 512 512" xml:space="preserve">
<g>
	<path fill-rule="evenodd" clip-rule="evenodd" d="M431.948,431.948c-97.175,97.175-254.722,97.175-351.897,0
		s-97.175-254.722,0-351.897s254.722-97.175,351.897,0S529.123,334.773,431.948,431.948z M388.595,123.361
		c-73.242-73.242-191.992-73.242-265.234,0c-73.242,73.242-73.242,191.992,0,265.234c73.242,73.249,191.992,73.249,265.234,0
		C461.837,315.353,461.837,196.603,388.595,123.361z"/>
	<path fill-rule="evenodd" clip-rule="evenodd" d="M374.173,137.827L91.869,286.204l124.734,9.184l14.451,129.995L374.173,137.827z"
		/>
</g>
</svg>
