<?xml version="1.0" encoding="utf-8"?>
<!-- Generator: Adobe Illustrator 15.0.0, SVG Export Plug-In . SVG Version: 6.00 Build 0)  -->
<!DOCTYPE svg PUBLIC "-//W3C//DTD SVG 1.1//EN" "http://www.w3.org/Graphics/SVG/1.1/DTD/svg11.dtd">
<svg version="1.1" id="Layer_1" xmlns="http://www.w3.org/2000/svg" xmlns:xlink="http://www.w3.org/1999/xlink" x="0px" y="0px"
	 width="512px" height="512px" viewBox="0 0 512 512" enable-background="new 0 0 512 512" xml:space="preserve">
<g>
	<path d="M420.278,52.273c16.123,11.838,30.048,26.065,41.832,42.705C567.307-28.41,590.005-77.876,590.005-77.876
		S542.062-53.462,420.278,52.273z"/>
	<path d="M-27.193,421.39c3.927-10.476,11.399-18.693,21.343-23.624c0.024-16.293,0.102-32.235,0.327-47.811l-21.134-21.13
		l-47.596,47.538l46.529,46.529C-27.547,422.39-27.38,421.885-27.193,421.39z"/>
	<polygon points="-22.138,517.3 -26.692,499.087 -72.082,544.475 -28.736,587.822 41.787,517.3 	"/>
</g>
<path d="M3.238,484.8c0,0-7.8-31.2,0-52c4.564-12.172,23.4-5.2,23.4-10.4c0-215.799,0-382.2,228.8-382.2
	c228.8,0,228.8,166.4,228.8,382.2c0,5.2,17.921-4.207,23.4,10.4c7.8,20.8,0,52,0,52v-62.4v62.4h-23.4h-62.4c0,0,0,91,0-62.4
	c0-179.399,0-319.799-166.399-319.799c-166.4,0-166.4,140.4-166.4,319.799c0,6.988,0,62.4,0,62.4h-62.4H3.238z"/>
<polygon points="121.538,517.3 82.538,517.3 66.678,517.3 139.263,589.878 186.84,542.307 161.833,517.3 "/>
<path d="M115.038,484.8h127.4V128.6C115.038,128.6,115.038,269,115.038,484.8z M198.238,332.7c-14.359,0-26-11.641-26-26
	c0-14.36,11.641-26,26-26c14.36,0,26,11.64,26,26C224.238,321.06,212.597,332.7,198.238,332.7z"/>
<path d="M268.438,128.6v356.2h127.399C395.837,269,395.837,128.6,268.438,128.6z M312.638,332.7c-14.36,0-26-11.641-26-26
	c0-14.36,11.64-26,26-26c14.359,0,26,11.64,26,26C338.638,321.06,326.997,332.7,312.638,332.7z"/>
<g>
	<path d="M95.473,52.273c-16.125,11.838-30.05,26.065-41.833,42.705C-51.556-28.41-74.255-77.876-74.255-77.876
		S-26.312-53.462,95.473,52.273z"/>
	<path d="M542.942,421.39c-3.927-10.476-11.398-18.693-21.343-23.624c-0.025-16.293-0.102-32.235-0.326-47.811l21.134-21.13
		l47.596,47.538l-46.531,46.529C543.297,422.39,543.13,421.885,542.942,421.39z"/>
	<polygon points="537.888,517.3 542.441,499.087 587.831,544.475 544.485,587.822 473.963,517.3 	"/>
</g>
<polygon points="394.212,517.3 433.212,517.3 449.071,517.3 376.487,589.878 328.909,542.307 353.917,517.3 "/>
</svg>
