<?xml version="1.0" encoding="utf-8"?>
<!-- Generator: Adobe Illustrator 15.0.0, SVG Export Plug-In . SVG Version: 6.00 Build 0)  -->
<!DOCTYPE svg PUBLIC "-//W3C//DTD SVG 1.1//EN" "http://www.w3.org/Graphics/SVG/1.1/DTD/svg11.dtd">
<svg version="1.1" id="Layer_1" xmlns="http://www.w3.org/2000/svg" xmlns:xlink="http://www.w3.org/1999/xlink" x="0px" y="0px"
	 width="512px" height="512px" viewBox="0 0 512 512" enable-background="new 0 0 512 512" xml:space="preserve">
<path d="M3.8,480.208c0,0-7.8-31.199,0-52c4.564-12.172,23.4-5.199,23.4-10.399c0-215.8,0-382.2,228.8-382.2
	c228.8,0,228.8,166.4,228.8,382.2c0,5.2,17.921-4.207,23.4,10.399c7.8,20.801,0,52,0,52v-62.399v62.399h-23.4h-62.4
	c0,0,0,91,0-62.399c0-179.4,0-319.8-166.399-319.8c-166.4,0-166.4,140.4-166.4,319.8c0,6.987,0,62.399,0,62.399H27.2H3.8z"/>
<path d="M115.6,480.208H243v-356.2C115.6,124.008,115.6,264.408,115.6,480.208z M198.8,328.108c-14.359,0-26-11.641-26-26
	s11.641-26,26-26c14.36,0,26,11.641,26,26S213.16,328.108,198.8,328.108z"/>
<path d="M269,124.008v356.2H396.4C396.4,264.408,396.4,124.008,269,124.008z M313.2,328.108c-14.36,0-26-11.641-26-26
	s11.64-26,26-26c14.359,0,26,11.641,26,26S327.56,328.108,313.2,328.108z"/>
</svg>
