<?xml version="1.0" encoding="utf-8"?>
<!-- Generator: Adobe Illustrator 15.0.0, SVG Export Plug-In . SVG Version: 6.00 Build 0)  -->
<!DOCTYPE svg PUBLIC "-//W3C//DTD SVG 1.1//EN" "http://www.w3.org/Graphics/SVG/1.1/DTD/svg11.dtd">
<svg version="1.1" id="Layer_1" xmlns="http://www.w3.org/2000/svg" xmlns:xlink="http://www.w3.org/1999/xlink" x="0px" y="0px"
	 width="512px" height="512px" viewBox="0 0 512 512" enable-background="new 0 0 512 512" xml:space="preserve">
<g transform="matrix(1 0 0 -1 0 1638)">
	<path d="M212.178,1587.087l35.058-35.058l35.059,35.058l-35.059,45.575L212.178,1587.087z M201.662,1587.087h-6.312v-17.178
		h-18.229v-63.454l70.114-70.116l70.115,70.116v63.454h-16.826v17.178h-7.713l-45.576-45.574L201.662,1587.087z M195.35,1477.707
		v-31.201l16.828-17.178v-35.059h70.115v35.059l18.58,19.281l0.352,31.2l-53.989-53.987L195.35,1477.707z M229.708,1383.753v-77.127
		h35.058v77.127H229.708z M220.943,1296.108h51.536v-35.059h-51.536V1296.108z M229.708,1250.534v-119.196h35.058v35.059
		l18.229-18.229l8.414,8.764l8.414-8.764v-9.816h18.229v10.519l16.828,17.178v11.92h-30.852v11.568l30.852,0.351v12.271
		l-16.828,16.828v10.517h-18.229v-10.517l-7.713-9.816l-9.115,10.519l-18.229-18.23v49.081h-35.058V1250.534z"/>
</g>
</svg>
