<?xml version="1.0" encoding="utf-8"?>
<!-- Generator: Adobe Illustrator 15.0.0, SVG Export Plug-In . SVG Version: 6.00 Build 0)  -->
<!DOCTYPE svg PUBLIC "-//W3C//DTD SVG 1.1//EN" "http://www.w3.org/Graphics/SVG/1.1/DTD/svg11.dtd">
<svg version="1.1" id="Layer_1" xmlns="http://www.w3.org/2000/svg" xmlns:xlink="http://www.w3.org/1999/xlink" x="0px" y="0px"
	 width="512px" height="512px" viewBox="0 0 512 512" enable-background="new 0 0 512 512" xml:space="preserve">
<g>
	<path d="M12.604,184.178l251.367,35.203l235.422,104.385l-255.666-33.798L12.604,184.178z"/>
	<path d="M293.434,263.096L185.285,499.399l35.939-257.01L324.861,12.601L293.434,263.096z"/>
	<path d="M134.557,33.499l152.843,202.635l92.674,240.286L223.181,271.735L134.557,33.499z"/>
	<path d="M277.321,287.876L33.77,378.5l207.14-156.322l235.78-89.194L277.321,287.876z"/>
	<path d="M381.767,377.896c-68.264,68.264-178.932,68.264-247.196,0c-68.25-68.257-68.25-178.929,0-247.189
		c68.264-68.257,178.932-68.257,247.196,0C450.017,198.966,450.017,309.639,381.767,377.896z M351.308,161.13
		c-51.44-51.447-134.859-51.447-186.306,0c-51.454,51.451-51.454,134.866,0,186.313c51.447,51.453,134.865,51.453,186.306,0
		C402.762,295.996,402.762,212.581,351.308,161.13z"/>
</g>
</svg>
