<?xml version="1.0" encoding="utf-8"?>
<!-- Generator: Adobe Illustrator 15.0.0, SVG Export Plug-In . SVG Version: 6.00 Build 0)  -->
<!DOCTYPE svg PUBLIC "-//W3C//DTD SVG 1.1//EN" "http://www.w3.org/Graphics/SVG/1.1/DTD/svg11.dtd">
<svg version="1.1" id="Layer_1" xmlns="http://www.w3.org/2000/svg" xmlns:xlink="http://www.w3.org/1999/xlink" x="0px" y="0px"
	 width="512px" height="512px" viewBox="0 0 512 512" enable-background="new 0 0 512 512" xml:space="preserve">
<g>
	<path d="M344.831,34.776c0-13.221-66.825,29.987-84.197,50.101c-26.441,30.617-35.325,9.935-25.05-11.829
		c30.842-65.332,47.577-106.58-10.438-32.705c-18.399,23.431-29.921,34.097-27.412,68.65
		c3.248,44.716,156.142,200.669,156.142,293.883c0,93.228-205.886,65.241-204.69-0.644c1.506-82.857,158.125-31.499,60.652-13.97
		c-68.192,12.265,44.717,61.899,100.531,31.45c21.937-11.967,4.541-54.412-37.036-125.389
		C188.984,150.334,88.762,58.436,162.521,160.724c16.844,23.358,27.834,53.58,32.009,70.28c5.688,22.755,2.667,42.597-3.479,59.842
		c-9.604,26.945-15.309,24.355-19.484-13.916c-6.113-56.036-88.372-142.648-41.054-59.842
		c12.008,21.016,14.687,72.625,12.525,93.938c-2.041,20.108-5.963,31.179-18.909,52.948c-16.106,27.082-30.496,25.682-14.492-12.59
		c5.528-13.219,9.308-35.109,4.175-51.492c-36.184-115.51-3.479,9.047-35.488,59.843C21.716,449.567,150.917,511,259.88,511
		c98.173,0,147.346-25.438,167.758-50.369c13.309-16.255,29.569-47.697,12.396-77.673c-44.404-77.5,14.046-106.725,1.521-164.479
		c-5.383-24.818-29.063,75.598-55.667,49.404c-35.703-35.153-89.458-82.5-100.896-126.643
		C271.167,85.948,344.831,45.306,344.831,34.776z"/>
</g>
</svg>
