<?xml version="1.0" encoding="utf-8"?>
<!-- Generator: Adobe Illustrator 15.0.0, SVG Export Plug-In . SVG Version: 6.00 Build 0)  -->
<!DOCTYPE svg PUBLIC "-//W3C//DTD SVG 1.1//EN" "http://www.w3.org/Graphics/SVG/1.1/DTD/svg11.dtd">
<svg version="1.1" id="Layer_1" xmlns="http://www.w3.org/2000/svg" xmlns:xlink="http://www.w3.org/1999/xlink" x="0px" y="0px"
	 width="512px" height="512px" viewBox="0 0 512 512" enable-background="new 0 0 512 512" xml:space="preserve">
<g>
	<path d="M287.703,167.511c94.854,0,171.752,76.891,171.752,171.745C459.454,434.101,382.557,511,287.703,511
		c-94.844,0-171.737-76.899-171.737-171.744C115.968,244.402,192.859,167.511,287.703,167.511z"/>
</g>
<g>
	<path d="M184.65,256.273c0,0-52.263-29.968-64.409-68.118c-4.048-12.708,19.822,8.276,68.714-19.952
		c52.652-30.399,46.177-61.426,55.395-51.704c27.549,29.054,26.638,89.927,26.638,89.927
		C255.091,215.605,204.101,245.043,184.65,256.273z"/>
</g>
<g>
	<path d="M88.748,137.315C20.673,71.52,62.05,47.631,103.414,23.75c44.975-25.966,82.74-47.77,109.445,41.911
		c9.214,30.948,7.186,56.234-37.79,82.2C133.704,171.743,117.913,165.505,88.748,137.315z"/>
</g>
<g>
	<path d="M214.463,166.555c0,0,87.051-101.221,132.943-103.923c47.962-2.827,93.125,33.739,93.8,50.612
		c0.689,17.19,0,29.021-20.923,29.696c-20.907,0.675-25.632-36.447-71.525-33.071c-45.893,3.375-56.019,41.845-72.202,70.858
		C260.358,209.743,214.463,166.555,214.463,166.555z"/>
</g>
</svg>
