<?xml version="1.0" encoding="utf-8"?>
<!-- Generator: Adobe Illustrator 15.0.0, SVG Export Plug-In . SVG Version: 6.00 Build 0)  -->
<!DOCTYPE svg PUBLIC "-//W3C//DTD SVG 1.1//EN" "http://www.w3.org/Graphics/SVG/1.1/DTD/svg11.dtd">
<svg version="1.1" id="Layer_1" xmlns="http://www.w3.org/2000/svg" xmlns:xlink="http://www.w3.org/1999/xlink" x="0px" y="0px"
	 width="512px" height="512px" viewBox="0 0 512 512" enable-background="new 0 0 512 512" xml:space="preserve">
<path d="M280.5,308.982c74-11.955,130.25-75.892,130.25-152.982c0-85.604-69.271-155-154.875-155
	c-85.604,0-155.188,69.396-155.188,155c0,77.092,56.813,141.027,129.813,152.982V369.5h-94v50h94v93h50v-93h94v-50h-94
	L280.5,308.982L280.5,308.982z M151,156c0-57.99,47.01-105,105-105c57.989,0,105,47.01,105,105S313.99,261,256,261
	C198.01,261,151,213.99,151,156z"/>
</svg>
