<?xml version="1.0" encoding="utf-8"?>
<!-- Generator: Adobe Illustrator 15.0.0, SVG Export Plug-In . SVG Version: 6.00 Build 0)  -->
<!DOCTYPE svg PUBLIC "-//W3C//DTD SVG 1.1//EN" "http://www.w3.org/Graphics/SVG/1.1/DTD/svg11.dtd">
<svg version="1.1" id="Layer_1" xmlns="http://www.w3.org/2000/svg" xmlns:xlink="http://www.w3.org/1999/xlink" x="0px" y="0px"
	 width="512px" height="512px" viewBox="0 0 512 512" enable-background="new 0 0 512 512" xml:space="preserve">
<g>
	<path fill-rule="evenodd" clip-rule="evenodd" d="M472.073,295.092c0.068,70.727-145.818,210.896-216.087,210.896
		c-70.267,0-215.977-140.172-215.664-210.18c0.382-85.358-0.324-115.021,0-208.02c0.145-41.606,93.387-81.777,218.202-81.777
		c124.818,0,213.386,39.445,213.549,82.495C472.367,165.958,471.986,204.712,472.073,295.092z M306.835,258.384
		c0,0,15.37-40.52,15.37-80.509c0-76.307-34.647-121.484-66.218-121.484c-31.558,0-67.796,45.212-67.796,121.484
		c0,39.989,16.949,80.509,16.949,80.509s-53.495,31.515-53.495,47.404c13.638,0,74.814,0.233,74.814,0.233
		s21.054,138.444,30.63,138.444c7.373,0,28.692-138.678,28.692-138.678s62.5,0,73.17,0
		C358.951,289.898,306.835,258.384,306.835,258.384z"/>
	<path fill-rule="evenodd" clip-rule="evenodd" d="M255.987,98.492c29.417,0,43.431,70.589,31.698,114.28
		c-31.698,118.043-31.698,117.912-64.563-2.152C211.533,168.278,226.582,98.492,255.987,98.492z"/>
</g>
</svg>
