<?xml version="1.0" encoding="utf-8"?>
<!-- Generator: Adobe Illustrator 15.0.0, SVG Export Plug-In . SVG Version: 6.00 Build 0)  -->
<!DOCTYPE svg PUBLIC "-//W3C//DTD SVG 1.1//EN" "http://www.w3.org/Graphics/SVG/1.1/DTD/svg11.dtd">
<svg version="1.1" id="Layer_1" xmlns="http://www.w3.org/2000/svg" xmlns:xlink="http://www.w3.org/1999/xlink" x="0px" y="0px"
	 width="512px" height="512px" viewBox="0 0 512 512" enable-background="new 0 0 512 512" xml:space="preserve">
<path fill="#231F20" enable-background="new    " d="M255.999,6.221L1,261.218h129.738v119.299l125.261,125.263l125.262-125.263
	V261.221H511L255.999,6.221z M352.927,369.306l-96.928,96.928l-96.929-96.928v-56.664l96.929,96.926l96.928-96.926V369.306
	L352.927,369.306z M352.927,278.701l-96.928,96.928l-96.929-96.928v-5.577c0-35.045,83.508-35.045,83.508-49.211
	c0-9.693-28.333-15.658-28.333-37.482c0-8.202,0-54.43,41.754-54.43s41.754,46.228,41.754,54.43
	c0,21.825-28.333,27.789-28.333,37.482c0,14.463,83.507,14.167,83.507,49.211V278.701z M360.818,232.887
	c-3.785-3-8.233-5.878-13.448-8.558c-9.16-4.708-19.177-8.1-28.899-10.919c4.441-7.2,7.616-16.087,7.616-26.98
	c0-15.496-2.482-29.338-7.381-41.146c-10.97-26.448-33.826-41.617-62.705-41.617c-28.879,0-51.734,15.169-62.704,41.617
	c-4.897,11.808-7.382,25.65-7.382,41.146c0,10.85,3.148,19.708,7.561,26.891c-9.569,2.802-19.699,6.25-28.718,10.885
	c-5.289,2.718-9.79,5.637-13.614,8.68H69.402L255.999,46.291l186.596,186.596H360.818z"/>
</svg>
