<?xml version="1.0" encoding="utf-8"?>
<!-- Generator: Adobe Illustrator 15.0.0, SVG Export Plug-In . SVG Version: 6.00 Build 0)  -->
<!DOCTYPE svg PUBLIC "-//W3C//DTD SVG 1.1//EN" "http://www.w3.org/Graphics/SVG/1.1/DTD/svg11.dtd">
<svg version="1.1" id="Layer_1" xmlns="http://www.w3.org/2000/svg" xmlns:xlink="http://www.w3.org/1999/xlink" x="0px" y="0px"
	 width="512px" height="512px" viewBox="0 0 512 512" enable-background="new 0 0 512 512" xml:space="preserve">
<path fill="#231F20" enable-background="new    " d="M255.999,6.221L1,261.218h129.738v119.299l125.261,125.263l125.262-125.263
	V261.221H511L255.999,6.221z M352.927,369.306l-96.928,96.928l-96.929-96.928v-56.664l96.929,96.926l96.928-96.926V369.306
	L352.927,369.306z M352.927,278.701l-96.928,96.928l-96.929-96.928v-5.577c0-35.045,83.508-35.045,83.508-49.211
	c0-9.693-28.333-15.658-28.333-37.482c0-8.202,0-54.43,41.754-54.43s41.754,46.228,41.754,54.43
	c0,21.825-28.333,27.789-28.333,37.482c0,14.463,83.507,14.167,83.507,49.211V278.701z"/>
</svg>
