<?xml version="1.0" encoding="utf-8"?>
<!-- Generator: Adobe Illustrator 15.0.0, SVG Export Plug-In . SVG Version: 6.00 Build 0)  -->
<!DOCTYPE svg PUBLIC "-//W3C//DTD SVG 1.1//EN" "http://www.w3.org/Graphics/SVG/1.1/DTD/svg11.dtd">
<svg version="1.1" id="Layer_1" xmlns="http://www.w3.org/2000/svg" xmlns:xlink="http://www.w3.org/1999/xlink" x="0px" y="0px"
	 width="512px" height="512px" viewBox="0 0 512 512" enable-background="new 0 0 512 512" xml:space="preserve">
<path d="M379.192,55.763c-3.756,7.416-11.452,67.641-13.6,73.01c-1.74,4.351-9.136-54.059-13.619-64.408
	c-1.088,1.698-2.229,3.477-3.41,5.323c-1.674,16.78,7.163,51.499,1.281,64.81c-1.536,3.477-10.531-20.02-18.288-37.742
	c-2.085,3.413-4.083,6.741-5.926,9.888c7.415,21.53,19.077,47.456,18.488,51.476c-0.42,2.863-13.428-22.12-24.84-40.11
	c-2.028,3.891-3.43,7.004-3.914,8.944c-0.605,2.42-1.081,4.528-1.418,6.475c10.451,17.576,23.794,35.364,21.583,37.575
	c-2.617,2.617-13.482-14.915-21.844-27.645c0.195,1.294,0.479,2.63,0.871,4.063c2.251,8.215,10.176,18.661,15.418,25.572
	c6.757,8.906,11.641,15.342,9.44,24.268c-1.224,4.963-4.583,9.056-9.218,11.229c-2.29,1.074-4.734,1.618-7.27,1.618
	c-6.241,0.001-10.378-3.186-12.85-5.09c-1.645-1.267-2.5-1.886-3.64-2.117c-6,5.904-16.29,28.324-16.361,41.202
	c-0.062,10.798,3.185,19.616,9.859,26.658c1.571-0.954,3.447-1.783,5.687-2.417c0.271-0.076,0.553-0.151,0.848-0.229
	c-0.032-1.563,0.186-13.758,14.39-16.611c1.164-0.234,2.665-0.487,4.729-0.799c0.249-0.038,0.518-0.076,0.778-0.115
	c-0.284-4.914,0.121-10.927,2.456-15.314c6.656-12.512,28.584-29.807,37.842-32.062c4.304-1.048,11.501,6.327,12.525,10.737
	c3.579,15.389-4.653-39.01,21.473-60.126c18.365-14.841,76.564-35.595,83.776-46.168c3.907-5.726-65.619,20.491-72.322,21.831
	c-5.37,1.074,56.747-65.031,37.579-53.684c-6.506,3.851-36.863,29.705-52.61,52.252c-2.624,3.758,33.39-71.937,23.263-65.494
	c-3.938,2.505-30.78,41.874-37.579,67.642C378.016,148.218,386.024,42.276,379.192,55.763z"/>
<path d="M487.276,284.097c-2.028,1.302,0.439-11.485-13.6-10.736c-16.285,0.87-29.706,12.794-27.2,20.041
	c9.404,27.198,35.073-0.806,24.336,16.464c-3.051,4.905-15.281-0.292-37.22,5.726c-24.784,6.8-46.54,56.587-41.963,66.12
	c3.221,6.711,14.791-6.046,18.521-13.152c8.589-16.373,33.539-2.802,42.052-12.884c6.801-8.053,17.55-3.028,17,0.269
	c-0.269,1.61-8.32-4.593-6.979,6.173c0.502,4.027,12.615,1.343,10.736,12.169c-0.379,2.182-0.235,7.476-2.147,8.59
	c-2.146,1.252,4.888-21.497-12.169-7.158c-3.936,3.311,4.729,9.505,5.728,12.884c1.61,5.458,0.81,11.632-2.147,11.632
	c-2.416,0,3.584-9.481-7.874-15.21c-11.989-5.995-8.415,4.644-11.452,4.295c-2.564-0.294-2.685-6.801-8.59-5.728
	c-14.409,2.619-19.906,38.588-35.552,47.892c-7.932,4.719-13.501-21.352-24.573-17.828c-5.905,1.879-17.56,23.739-19.326,29.348
	c-1.766,5.599,9.702,14.98,14.316,18.609c2.769,2.181,8.389,3.355,12.884,5.727c2.909,1.535,7.746,10.345,5.009,12.169
	c-2.685,1.788-1.52-8.106-7.247-1.701c-1.011,1.132-1.447,8.009-1.214,9.508c0.945,6.061-4.27,12.846-4.423,10.087
	c-0.208-3.74,4.563-25.5-10.021-11.452c-2.967,2.858-0.545,8.052-0.716,10.737c-0.269,4.204-6.211,9.557-8.589,7.873
	c-2.147-1.521,8.653-4.644,2.863-17.895c-3.4-7.784-9.334-3.932-11.453-6.442c-1.715-2.033,0.982-3.286-3.578-10.021
	c-9.573-14.137-14.941-11.453-17.179-20.042c-0.919-3.532-17.552-1.176-14.314-2.863c7.099-3.701,15.746-1.432,7.157-11.452
	c-2.271-2.649-23.3-7.479-34.357-16.463c-2.244-1.823,16.91,3.668,10.736-4.295c-2.251-2.901-4.563-8.411-10.736-10.021
	c-5.492-1.434-17.721-5.185-22.816-2.685c-6.359,3.122-4.206,22.818-9.125,27.916c-3.502,3.629-15.622,2.976-20.311,4.831
	c-5.531,2.189-10.021,0.537-22.905,6.442c-2.727,1.25-7.589,3.246-3.579,11.453c3.847,7.873,16.348,7.846,20.042,4.295
	c6.89-6.622,9.926-8.595,11.453-7.158c4.563,4.294-9.663-0.806-2.147,11.452c0.953,1.557,5.642,0.417,7.158,1.432
	c2.145,1.436,7.812,7.071,5.726,8.589c-2.953,2.147-7.229-9.008-15.748-0.715c-1.642,1.598,6.087,3.7,7.158,5.727
	c1.09,2.062,2.783,8.222,0.716,9.305c-3.267,1.713-4.743-14.048-11.453-9.305c-1.71,1.208,2.687,5.786,2.864,7.873
	c0.168,1.994,0.548,7.584-1.431,7.874c-3.042,0.446,0.409-10.267-11.453-19.326c-3.557-2.716-10.916-0.896-17.179-5.011
	c-2.007-1.318-6.312,5.054-8.589,4.295c-2.277-0.76-2.552-6.938-4.295-8.59c-7.373-6.99-13.064-9.842-13.601-15.747
	c-0.953-10.479,33.016-22.815,31.494-27.916c-0.794-2.661-4.384-6.174-10.737-2.862c-1.989,1.036-2.087,7.48-4.295,7.873
	c-1.874,0.335-1.477-6.675-5.726-5.011c-9.851,3.857-27.379,20.668-32.21,22.189c-6.153,1.938-11.542-6.353-12.884,0
	c-1.31,6.196-1.879,9.753,0,15.032c2.287,6.426,6.334,13.646,11.453,14.314c4.115,0.537,5.661-4.361,7.874-5.01
	c3.131-0.915,10.379,2.863,10.021,7.157c-0.359,4.295-8.947-8.857-15.032,2.147c-2.667,4.824,6.622,2.147,10.648,6.979
	c3.647,4.377,5.053,10.874,1.521,13.779c-1.521,1.252-0.278-17.699-10.915-8.829c-1.171,0.978,4.562,2.028,5.367,5.518
	c1.33,5.764-1.508,11.92-3.042,11.185c-2.058-0.984,2.339-19.893-15.272-13.22c-1.614,0.61-0.813,6.823-0.049,10.364
	c1.076,4.992,0.418,9.265-2.573,9.298c-2.953,0.032,4.472-5.429-11.275-23.145c-2.045-2.301-13.957,1.223-9.662-4.146
	c1.875-2.343,3.4-26.036,0.895-35.699s-17.536-26.842-14.315-30.063c3.221-3.221,17.224-1.97,23.579-2.04
	c9.705-0.107,7.894-3.438,8.454-9.206c1.252-12.91-13.309-3.036-11.274-6.468c2.863-4.832,4.587-4.156,8.769-7.517
	c5.011-4.025-16.439,2.098-15.568-0.805c0.805-2.685,5.545-6.412,6.71-7.784c7.516-8.857-12.934-3.879-12.079-5.637
	c1.053-2.165,6.604-2.44,12.168-5.637c4.206-2.416,9.037-4.295,8.589-20.041c-0.346-12.166-6.494-20.851-24.337-19.326
	c-24.069,2.056-29.706,86.607-68.68,85.021c-22.262-0.908-30.13-11.778-32.078-24.016c-2.763-17.344,10.837-26.828,19.248-27.544
	s12.616,8.321,24.247,13.063c3.983,1.624-8.919,1.551-9.531,6.446c-0.612,4.896-0.311,12.163-7.648,13.774
	c-7.337,1.61-11.63-3.762-12.168-5.638c-1.665-5.802,1.876-7.62,4.882-8.979c3.758-1.701-6.224,8.442,6.392,8.174
	c1.585-0.033,2.081-5.308,2.327-8.053c0.626-6.979-0.434-13.397-8.5-12.079c-8.067,1.319-13.689,7.784-12.616,19.326
	c1.076,11.569,9.246,16.032,26.037,16.643c29.201,1.061,38.197-87.513,67.104-90.726c25.768-2.863,61.468,8.053,88.847,8.857
	c24.956,0.734,51.366-11.371,45.989-13.241c-6.174-2.147-54.396,2.868-62.663-2.386c-10.232-6.501,60.452-18.663,56.936-20.161
	c-4.832-2.059-60.213,4.521-77.995-5.187c-12.462-6.804,76.409-11.149,72.069-13.692c-8.052-4.719-84.505-8.522-88.557-14.854
	c-4.294-6.709,87.683-2.298,85.894-6.352c-1.342-3.042-72.273-11.139-86.968-27.468c-7.247-8.053,85.537,14.583,83.747,9.574
	c-1.62-4.538-62.273-17.626-84.283-45.005c-15.375-19.124,86.967,33.015,83.747,25.231c-2.327-5.622-67.304-31.781-78.378-51
	c-9.126-15.836,82.428,36.335,77.865,27.209c-2.89-5.781-58.718-27.424-69.455-60.94c-2.145-6.696,73.526,49.13,69.231,37.588
	c-1.298-3.489-55.094-35.261-63.952-59.419c-2.981-8.128,64.689,45.094,68.089,41.516c3.4-3.578-52.61-42.947-56.547-67.284
	c-1.222-7.547,68.715,59.32,66.836,51.805c-1.444-5.771-50.731-61.11-50.374-79.72c0.273-14.247,62.015,69.752,62.552,61.431
	c0.413-6.4-43.273-61.059-34.773-89.152c3.037-10.037,45.14,80.063,47.735,76.037c3.31-5.134-17.894-75.87,0.358-99.494
	c4.496-5.82,11.273,96.004,18.253,86.61c3.265-4.394,3.386-80.824,21.473-88.223c11.811-4.832-12.347,88.491-2.147,80.35
	c4.96-3.96,33.641-67.284,60.126-69.789c7.119-0.673-58.247,89.473-63.704,111.305c-2.572,10.284-3.642,17.958-0.716,28.632
	c5.368,19.594,28.247,40.398,24.336,42.23c-2.393,1.122-6.921-8.088-20.042-7.158c-12.615,0.895-29.239,38.205-29.347,57.262
	c-0.179,31.941,21.831,45.362,30.779,50.104c6.053,3.208,31.563,0.273,30.063-2.146c-2.776-4.475-22.775-6.104-25.591-6.622
	c-10.199-1.879,47.16-7.855,42.77-9.841c-10.29-4.653-14.149-6.384-28.812-7.606c-6.441-0.536,40.041-5.295,47.072-7.784
	c9.102-3.223,13.859-5.368-5.199-8.052c-13.318-1.875,67.373-6.979,79.989-1.61c11.488,4.889,35.039,5.753,42.231,17.178
	C493.36,277.296,488.785,283.128,487.276,284.097z"/>
</svg>
