<?xml version="1.0" encoding="utf-8"?>
<!-- Generator: Adobe Illustrator 16.0.0, SVG Export Plug-In . SVG Version: 6.00 Build 0)  -->
<!DOCTYPE svg PUBLIC "-//W3C//DTD SVG 1.1//EN" "http://www.w3.org/Graphics/SVG/1.1/DTD/svg11.dtd">
<svg version="1.1" id="Layer_1" xmlns="http://www.w3.org/2000/svg" xmlns:xlink="http://www.w3.org/1999/xlink" x="0px" y="0px"
	 width="512px" height="512px" viewBox="0 0 512 512" enable-background="new 0 0 512 512" xml:space="preserve">
<path d="M256,10.834c0,0-134.5,325.333-143.167,346.667c18.667-18,79.333-18.667,96,1.333c15.745,18.895,17.333,53.333,10,66
	c28,0,29.333,30,18.667,56.667c-3.145,7.861,6,26.667,18.5,26.667s21.645-18.806,18.5-26.667
	c-10.666-26.667-9.333-56.667,18.667-56.667c-7.333-12.667-5.745-47.105,10-66c16.667-20,77.333-19.333,96-1.333
	C390.5,336.168,256,10.834,256,10.834z"/>
</svg>
