<?xml version="1.0" encoding="utf-8"?>
<!-- Generator: Adobe Illustrator 15.0.0, SVG Export Plug-In . SVG Version: 6.00 Build 0)  -->
<!DOCTYPE svg PUBLIC "-//W3C//DTD SVG 1.1//EN" "http://www.w3.org/Graphics/SVG/1.1/DTD/svg11.dtd">
<svg version="1.1" id="Layer_1" xmlns="http://www.w3.org/2000/svg" xmlns:xlink="http://www.w3.org/1999/xlink" x="0px" y="0px"
	 width="512px" height="512px" viewBox="0 0 512 512" enable-background="new 0 0 512 512" xml:space="preserve">
<g>
	<polygon points="352,165.922 352,256 352,346.078 418,393.999 418,256 418,118 	"/>
	<polygon points="246,95.262 246,7.266 110.827,105.476 171.369,149.462 	"/>
	<polygon points="401.173,105.476 266,7.266 266,95.262 340.631,149.462 	"/>
	<polygon points="332,256 332,168.093 256,112.876 180,168.093 180,256 180,343.906 256,399.123 332,343.906 	"/>
	<polygon points="160,256 160,165.922 94,118 94,256 94,393.999 160,346.078 	"/>
	<polygon points="110.827,406.523 246,504.734 246,416.737 171.369,362.537 	"/>
	<polygon points="266,416.737 266,504.734 401.173,406.523 340.631,362.537 	"/>
</g>
</svg>
