<?xml version="1.0" encoding="utf-8"?>
<!-- Generator: Adobe Illustrator 15.0.0, SVG Export Plug-In . SVG Version: 6.00 Build 0)  -->
<!DOCTYPE svg PUBLIC "-//W3C//DTD SVG 1.1//EN" "http://www.w3.org/Graphics/SVG/1.1/DTD/svg11.dtd">
<svg version="1.1" id="Layer_1" xmlns="http://www.w3.org/2000/svg" xmlns:xlink="http://www.w3.org/1999/xlink" x="0px" y="0px"
	 width="512px" height="512px" viewBox="0 0 512 512" enable-background="new 0 0 512 512" xml:space="preserve">
<path d="M468.69,170.627c9.477-20.006,18.602-92.833,16.145-93.798c-1.911-0.752-7.282,11.144-10.265,10.002
	c-3.148-1.204-0.145-19.912-2.369-20.707c-2.457-0.878-6.581,12.811-11.846,10.705s-0.336-17.247-2.194-17.812
	c-2.017-0.614-11.056,16.32-17.373,17.9c-6.317,1.579-12.81-10.178-14.214-9.477c-1.854,0.926,5.791,11.583-3.159,26.323
	c-8.95,14.741-46.329,36.853-70.546,37.379c-24.218,0.526-40.554-41.074-34.089-36.063c7.02,5.44,16.091-2.774,10.398-13.162
	C323.288,71.171,292.722-1,256-1s-67.289,72.171-73.178,82.918c-5.693,10.388,3.378,18.602,10.397,13.162
	c6.465-5.011-9.871,36.589-34.088,36.063s-61.596-22.638-70.546-37.379c-8.95-14.741-1.306-25.397-3.159-26.323
	c-1.404-0.702-7.897,11.056-14.214,9.477c-6.318-1.58-15.355-18.514-17.374-17.9c-1.858,0.565,3.071,15.706-2.194,17.812
	s-9.388-11.583-11.845-10.705c-2.225,0.795,0.779,19.503-2.369,20.707c-2.983,1.141-8.354-10.754-10.266-10.002
	c-2.457,0.965,6.669,73.792,16.145,93.798c9.477,20.005,58.438,65.808,66.334,85.287s7.897,47.908,2.106,65.282
	c-5.792,17.373-50.541,70.02-56.858,111.609c-6.318,41.591-1.667,76.425,0,76.337c1.667-0.087,4.211-11.143,7.985-12.108
	c5.1-1.305,3.159,16.847,4.65,17.373c1.492,0.526,5.56-15.182,11.056-15.267c5.616-0.088,2.983,17.724,5.703,17.109
	c2.72-0.613,20.087-88.081,100.116-88.183c69.229-0.087,62.099,86.34,71.599,86.34s2.369-86.427,71.599-86.34
	c80.028,0.102,97.396,87.569,100.116,88.183c2.72,0.614,0.087-17.197,5.703-17.109c5.496,0.085,9.564,15.793,11.056,15.267
	s-0.45-18.678,4.649-17.373c3.773,0.966,6.317,12.021,7.985,12.108c1.668,0.088,6.317-34.746,0-76.337
	c-6.317-41.59-51.066-94.236-56.857-111.609c-5.791-17.374-5.791-45.803,2.105-65.282
	C410.254,236.435,459.215,190.632,468.69,170.627z"/>
</svg>
