<?xml version="1.0" encoding="utf-8"?>
<!-- Generator: Adobe Illustrator 15.0.0, SVG Export Plug-In . SVG Version: 6.00 Build 0)  -->
<!DOCTYPE svg PUBLIC "-//W3C//DTD SVG 1.1//EN" "http://www.w3.org/Graphics/SVG/1.1/DTD/svg11.dtd">
<svg version="1.1" id="Layer_1" xmlns="http://www.w3.org/2000/svg" xmlns:xlink="http://www.w3.org/1999/xlink" x="0px" y="0px"
	 width="512px" height="512px" viewBox="0 0 512 512" enable-background="new 0 0 512 512" xml:space="preserve">
<polygon points="459.422,52.579 459.319,52 457.729,52.281 "/>
<polygon points="459.72,54.271 460,52.681 459.422,52.579 "/>
<path d="M433.671,35.167L250.863,67.401l8.681,49.241l121.965-21.506L271.425,205.22c-60.578-43.671-145.587-38.261-200.099,16.251
	c-60.531,60.531-60.531,158.671,0,219.203c60.532,60.531,158.672,60.531,219.203,0c54.512-54.512,59.923-139.521,16.252-200.1
	l110.083-110.083l-21.506,121.964l49.24,8.683l32.235-182.812l9.239-52.401L433.671,35.167z M255.173,405.319
	c-41.005,41.005-107.487,41.005-148.492,0s-41.005-107.487,0-148.492c41.005-41.005,107.487-41.005,148.492,0
	C296.179,297.832,296.178,364.314,255.173,405.319z"/>
</svg>
