<?xml version="1.0" encoding="utf-8"?>
<!-- Generator: Adobe Illustrator 15.0.0, SVG Export Plug-In . SVG Version: 6.00 Build 0)  -->
<!DOCTYPE svg PUBLIC "-//W3C//DTD SVG 1.1//EN" "http://www.w3.org/Graphics/SVG/1.1/DTD/svg11.dtd">
<svg version="1.1" id="Layer_1" xmlns="http://www.w3.org/2000/svg" xmlns:xlink="http://www.w3.org/1999/xlink" x="0px" y="0px"
	 width="512px" height="512px" viewBox="0 0 512 512" enable-background="new 0 0 512 512" xml:space="preserve">
<path fill="#231F20" enable-background="new    " d="M512,76.033c0-37.907-26.717-50.36-50.36-50.36
	c-117.509,0-180.459,176.262-180.459,188.852c0,12.59,0-37.771-25.181-37.771c-25.705,0-25.18,50.225-25.18,37.771
	c0-12.59-62.951-188.852-180.459-188.852C0,25.672,0,69.285,0,76.033c0,46.164,62.951,46.164,37.771,125.902
	c-3.792,12.005,50.361,50.36,50.361,88.131c0,6.295-25.181,6.295-25.181,16.787c0,14.032,29.188,26.141,37.771,46.164
	c12.59,29.377,12.59,31.476,12.59,50.36c0,12.59-25.18,62.951-12.59,62.951c12.59,0,67.147-81.836,104.918-81.836
	s12.59,31.475,50.361,31.475s12.59-31.475,50.36-31.475s92.328,81.836,104.918,81.836c12.591,0-12.59-50.361-12.59-62.951
	c0-18.885,0-20.983,12.59-50.36c8.104-18.908,37.771-37.668,37.771-46.164c0-10.492-25.18-10.492-25.18-16.787
	c0-37.771,54.15-76.125,50.36-88.131C449.049,122.197,512,122.197,512,76.033z M167.869,296.36
	c-16.787,0-54.557-6.295-54.557-44.065c0,0,0-25.18,37.771-25.18c16.787,0,54.557,41.967,54.557,62.951
	C205.639,296.36,205.639,296.36,167.869,296.36z M344.131,296.36c-37.771,0-37.771,0-37.771-6.295
	c0-20.983,37.771-62.951,54.558-62.951c37.771,0,37.771,25.18,37.771,25.18C398.689,290.065,360.918,296.36,344.131,296.36z"/>
</svg>
