<?xml version="1.0" encoding="utf-8"?>
<!-- Generator: Adobe Illustrator 15.0.0, SVG Export Plug-In . SVG Version: 6.00 Build 0)  -->
<!DOCTYPE svg PUBLIC "-//W3C//DTD SVG 1.1//EN" "http://www.w3.org/Graphics/SVG/1.1/DTD/svg11.dtd">
<svg version="1.1" id="Layer_1" xmlns="http://www.w3.org/2000/svg" xmlns:xlink="http://www.w3.org/1999/xlink" x="0px" y="0px"
	 width="512px" height="512px" viewBox="0 0 512 512" enable-background="new 0 0 512 512" xml:space="preserve">
<path d="M440.286,144.634C440.286,92,388.858,2,256,2C123.143,2,71.715,92,71.715,143.429c0,32.143,25.714,32.143,25.714,64.286
	c0,17.143-25.714,70.714-25.714,90c0,19.286,0,38.572,25.714,38.572s64.286-38.572,64.286,0c0,19.285-19.286,51.428-19.286,115.714
	c0,12.857,0,60,32.143,60c8.572,0-12.857-21.429-12.857-60c0-64.286,51.429-64.286,94.286-64.286c47.143,0,94.286,0,94.286,64.286
	c0,38.571-21.429,60-12.857,60c32.143,0,32.143-47.143,32.143-60c0-25.016-19.285-96.429-19.285-115.714c0-38.572,38.571,0,64.285,0
	c25.715,0,25.715-19.286,25.715-38.572c0-19.285-25.715-72.857-25.715-90C414.572,175.571,440.286,175.571,440.286,144.634z
	 M256,207.714c17.143,0,34.286,70.714,17.143,70.714c-17.143,0-10.714-19.286-17.143-19.286s0,19.286-17.143,19.286
	C226,278.429,238.857,207.714,256,207.714z M161.581,259.143c-19.286,0-38.572,0-38.438-50.868
	c0.085-32.703,38.571-64.846,90-64.846c25.714,0,25.714,32.143,25.714,32.143c0,32.143-25.65,32.944-25.714,49.286
	C213.009,259.143,183.009,259.143,161.581,259.143z M337.429,355.935c-15-20.021-8.571-19.648-26.786-0.368
	c-11.785-19.2-7.5-19.649-19.285,0c-11.547-19.649-6.429-19.649-18.215,0.012c-10.446-19.152-6.429-19.661-17.143,0
	c-10.714-19.654-6.429-19.292-17.143,0c-11.786-19.661-6.428-19.661-18.214-0.012c-12.857-19.246-7.366-19.28-20.357,0
	c-17.009-19.363-10.714-19.649-25.714,0.012c8.706-19.375,8.706-19.375,0-38.572c15,18.911,8.839,19.28,25.714,0.162
	c12.991,19.252,7.5,18.749,20.357-0.531c11.786,19.287,6.428,19.287,18.214,0.369c10.714,19.456,6.429,18.911,17.143,0
	c10.714,18.918,6.429,19.464,17.143,0c11.786,18.911,6.668,18.911,18.215-0.369c11.785,19.28,7.768,19.649,19.285-0.007
	c18.215,19.367,11.786,19.287,26.786,0.376C328.858,336.426,328.858,336.426,337.429,355.935z M350.42,259.143
	c-21.429,0-51.429,0-51.563-34.286c-0.065-16.341-25.715-17.143-25.715-49.286c0,0,0-32.143,25.715-32.143
	c51.429,0,89.914,32.143,90,64.846C388.99,259.143,369.705,259.143,350.42,259.143z"/>
</svg>
