<?xml version="1.0" encoding="utf-8"?>
<!-- Generator: Adobe Illustrator 15.0.0, SVG Export Plug-In . SVG Version: 6.00 Build 0)  -->
<!DOCTYPE svg PUBLIC "-//W3C//DTD SVG 1.1//EN" "http://www.w3.org/Graphics/SVG/1.1/DTD/svg11.dtd">
<svg version="1.1" id="Layer_1" xmlns="http://www.w3.org/2000/svg" xmlns:xlink="http://www.w3.org/1999/xlink" x="0px" y="0px"
	 width="512px" height="512px" viewBox="0 0 512 512" enable-background="new 0 0 512 512" xml:space="preserve">
<path d="M1.991,396.533c-7.982-7.775,34.356-199.547,51.735-221.719c13.596-17.348,175.18-85.092,237.5-85.092
	c28.563,0,103.631,35.515,122.046,53.932c6.791,6.791,54.531-1.599,59.325,2.397c4.795,3.995-5.991,29.363-5.991,29.363
	s19.502,12.05,22.498,28.828c2.987,16.737,4.269,46.18,6.266,51.668c3.196,8.791,14.782,13.584,15.58,20.775
	c0.8,7.191-8.189,11.985-16.18,14.382c-7.989,2.396-85.496-39.172-85.092-35.157c0.403,4.015,11.584,117.453,17.977,128.638
	c6.392,11.186,18.576,17.178,23.37,22.771c4.794,5.595,3.195,14.78-1.199,14.78c-4.393,0-67.114-0.8-70.71,0
	c-3.595,0.8-23.695-90.168-27.166-85.492c-3.469,4.678-42.946,55.729-28.563,68.914c7.679,7.038,10.187,16.578,5.394,16.578
	c-4.794,0-58.524,0.399-63.12,0c-4.596-0.398,5.991-107.064,1.598-109.462c-4.395-2.397-98.676,4.195-103.07,9.588
	c-4.396,5.393-6.436,78.718,11.197,83.41c11.305,3.008,17.366,16.643,11.974,16.643c-5.394,0-56.929-0.179-62.321-0.179
	s-33.833-69.181-36.756-66.314c-2.924,2.865-45.343,32.958-39.216,43.008c3.221,5.283,10.052,29.501-11.521,17.517
	C26.533,410.19,12.198,406.478,1.991,396.533z"/>
</svg>
