<?xml version="1.0" encoding="utf-8"?>
<!-- Generator: Adobe Illustrator 15.0.0, SVG Export Plug-In . SVG Version: 6.00 Build 0)  -->
<!DOCTYPE svg PUBLIC "-//W3C//DTD SVG 1.1//EN" "http://www.w3.org/Graphics/SVG/1.1/DTD/svg11.dtd">
<svg version="1.1" id="Layer_1" xmlns="http://www.w3.org/2000/svg" xmlns:xlink="http://www.w3.org/1999/xlink" x="0px" y="0px"
	 width="512px" height="512px" viewBox="0 0 512 512" enable-background="new 0 0 512 512" xml:space="preserve">
<g transform="matrix(1 0 0 -1 0 1638)">
	<path d="M183.044,1149.781c-4.983,3.796-9.848,8.186-14.592,13.168c-24.438,24.2-36.657,53.502-36.657,87.903
		c0,34.403,12.219,63.823,36.657,88.263c5.457,5.457,11.27,10.319,17.438,14.592c0-0.237,0.119-0.356,0.356-0.356
		c-4.033-13.761-6.88-28.114-8.541-43.063c-3.322-32.269-0.476-62.756,8.541-91.464c4.508-7.594,10.084-14.711,16.727-21.354
		c13.999-13.999,30.725-21.354,50.181-22.064c-6.643-3.797-13.643-7.236-20.998-10.321
		C215.785,1157.967,199.414,1152.865,183.044,1149.781z M201.55,1341.606c9.965-7.118,20.167-13.287,30.605-18.508
		c-10.677-3.796-20.403-9.965-29.183-18.506c-3.322-3.559-6.288-7.118-8.896-10.677c0.236,4.745,0.593,9.49,1.067,14.235
		C196.566,1319.778,198.703,1330.93,201.55,1341.606z M332.16,1250.854c0,12.575-2.729,24.201-8.186,34.879
		c6.17-3.797,12.219-7.83,18.15-12.102c14.711-10.677,27.402-22.54,38.08-35.589c-2.609-28.946-14.473-53.977-35.59-75.093
		c-24.438-24.438-53.857-36.657-88.26-36.657c-18.269,0-35.114,3.44-50.537,10.321c11.151,3.084,22.304,7.117,33.454,12.1
		c29.658,13.287,54.689,30.963,75.093,53.028C326.231,1215.739,332.16,1232.11,332.16,1250.854z M352.448,1434.494
		c-4.033-23.016-8.957-38.853-14.77-47.512c-5.814-8.66-11.092-14.65-15.838-17.974c-11.863,4.033-24.676,8.187-38.436,12.456
		c7.592,5.932,13.287,10.796,17.082,14.592c11.863,11.863,17.795,26.219,17.795,43.063c0,8.305-1.424,15.896-4.27,22.776
		C327.297,1454.543,340.11,1445.408,352.448,1434.494z M214.718,1396.058c4.745-4.745,10.083-8.896,16.015-12.456
		c13.287-5.932,27.76-11.565,43.418-16.904c15.658-5.338,32.385-12.396,50.18-21.176c19.455-8.778,34.166-21.946,44.133-39.504
		c6.404-12.813,10.318-26.691,11.742-41.64c-8.303,8.304-17.438,16.015-27.402,23.133c-22.064,16.134-45.197,27.878-69.398,35.233
		c-29.895,9.728-51.25,18.743-64.061,27.048c-12.813,8.304-22.421,15.659-28.827,22.064c-18.506,18.507-27.76,40.928-27.76,67.264
		c0,23.727,7.592,44.25,22.777,61.568c-0.476-31.793,5.456-61.688,17.794-89.685C206.414,1405.548,210.21,1400.565,214.718,1396.058
		z M234.647,1495.352c-7.354-3.085-13.999-7.593-19.93-13.523c-3.796-3.796-7-7.829-9.609-12.1
		c-2.135,14.71-2.609,29.775-1.423,45.197C213.886,1507.57,224.208,1501.046,234.647,1495.352z M218.988,1591.798
		c-3.796,7.355-7.117,15.066-9.965,23.133c1.423,1.661,6.229,5.636,14.414,11.923c8.187,6.287,19.516,9.905,33.987,10.854
		c17.084,0,31.793-6.05,44.131-18.15v-0.354c-18.744,1.66-37.131,0.948-55.163-2.136v-0.356
		c-6.881-1.896-13.049-5.575-18.506-11.032C223.851,1601.645,220.885,1597.018,218.988,1591.798z M326.823,1499.622
		c12.102-9.253,19.932-22.658,23.49-40.216c-22.066,17.083-45.91,29.302-71.535,36.656c-13.287,3.56-24.734,7.533-34.343,11.923
		c-9.608,4.39-21.413,12.277-35.411,23.667c-9.253,12.101-13.88,26.69-13.88,43.773c0,6.881,0.949,13.287,2.848,19.219
		c6.643-14.947,13.643-28.59,20.997-40.928c6.406-6.406,11.093-10.617,14.059-12.635s7.177-4.211,12.634-6.584l-0.355-0.711
		c19.218-7.593,35.351-13.168,48.4-16.729C306.774,1513.502,317.807,1507.689,326.823,1499.622z M280.914,1538.059
		c2.609,3.321,6.346,7.414,11.209,12.278c4.863,4.863,7.297,13.229,7.297,25.09c0,10.439-3.084,19.456-9.254,27.048
		c8.066-0.475,16.371-1.305,24.912-2.49c3.084-7.593,4.627-15.777,4.627-24.558c0-14.71-5.338-29.895-16.016-45.554
		C296.336,1532.245,288.742,1534.974,280.914,1538.059z"/>
</g>
</svg>
