<?xml version="1.0" encoding="utf-8"?>
<!-- Generator: Adobe Illustrator 15.0.0, SVG Export Plug-In . SVG Version: 6.00 Build 0)  -->
<!DOCTYPE svg PUBLIC "-//W3C//DTD SVG 1.1//EN" "http://www.w3.org/Graphics/SVG/1.1/DTD/svg11.dtd">
<svg version="1.1" id="Layer_1" xmlns="http://www.w3.org/2000/svg" xmlns:xlink="http://www.w3.org/1999/xlink" x="0px" y="0px"
	 width="512px" height="512px" viewBox="0.5 792.5 512 512" enable-background="new 0.5 792.5 512 512" xml:space="preserve">
<g transform="matrix(1 0 0 -1 0 1638)">
	<path d="M212.678,794.587l35.058-35.058l35.058,35.058l-35.058,45.575L212.678,794.587z M202.161,794.587h-6.311v-17.178h-18.23
		v-63.454l70.115-70.116l70.115,70.116v63.454h-16.827v17.178h-7.713l-45.575-45.574L202.161,794.587z M195.85,685.207v-31.201
		l16.828-17.178v-35.058h70.115v35.058l18.581,19.281l0.351,31.201l-53.989-53.988L195.85,685.207z M230.207,591.253v-77.127h35.058
		v77.127H230.207z M221.443,503.608h51.535v-35.058h-51.535V503.608z M230.207,458.034V338.838h35.058v35.058l18.229-18.229
		l8.414,8.764l8.414-8.764v-9.816h18.229v10.518l16.828,17.178v11.92h-30.851v11.568l30.851,0.351v12.271l-16.828,16.828v10.517
		h-18.229v-10.517l-7.713-9.816l-9.115,10.518l-18.229-18.23v49.081H230.207z"/>
</g>
</svg>
