<?xml version="1.0" encoding="utf-8"?>
<!-- Generator: Adobe Illustrator 16.0.0, SVG Export Plug-In . SVG Version: 6.00 Build 0)  -->
<!DOCTYPE svg PUBLIC "-//W3C//DTD SVG 1.1//EN" "http://www.w3.org/Graphics/SVG/1.1/DTD/svg11.dtd">
<svg version="1.1" id="Layer_1" xmlns="http://www.w3.org/2000/svg" xmlns:xlink="http://www.w3.org/1999/xlink" x="0px" y="0px"
	 width="512px" height="512px" viewBox="0 0 512 512" enable-background="new 0 0 512 512" xml:space="preserve">
<path d="M479.906,428.467c-22.288-7.057-61.48-50.84-61.48-61.477c0-10.639,54.271-52.531,54.271-62.754
	c0-10.226-20.459-47.289-20.459-47.289c0,44.313-61.836,71.725-61.836,71.725c-2.41-2.412-7.362-7.361-47.44-47.441
	C121.244,59.515,41.299,20.649,41.299,20.649s38.865,79.945,260.582,301.662c40.078,40.078,45.027,45.029,47.439,47.441
	c0,0-27.412,61.836-71.725,61.836c0,0,37.063,20.457,47.288,20.457s52.114-54.27,62.754-54.27c10.639,0,54.422,39.19,61.479,61.479
	c4.097,12.938,8.251,32.096,26.438,32.096c9.094,0,18.268-4.518,25.126-11.319c6.804-6.859,11.32-16.033,11.32-25.127
	C512,436.719,492.843,432.564,479.906,428.467z"/>
<g>
	<path d="M162.679,369.752c2.412-2.412,7.362-7.363,47.44-47.441c16.261-16.261,31.53-31.753,45.881-46.513
		c-14.064-14.466-27.239-28.223-39.577-41.293c-15.021,14.596-30.802,30.146-47.382,46.726
		c-40.079,40.08-45.031,45.029-47.441,47.441c0,0-61.836-27.412-61.836-71.725c0,0-20.459,37.063-20.459,47.289
		c0,10.223,54.271,52.115,54.271,62.754c0,10.637-39.193,54.42-61.481,61.477C19.157,432.564-0.001,436.719,0,454.904
		c0,9.094,4.517,18.268,11.319,25.127c6.858,6.803,16.032,11.319,25.126,11.319c18.187,0,22.342-19.157,26.438-32.096
		c7.057-22.289,50.84-61.479,61.479-61.479c10.64,0,52.529,54.27,62.755,54.27c10.224,0,47.287-20.457,47.287-20.457
		C190.091,431.588,162.679,369.752,162.679,369.752z"/>
	<path d="M295.577,234.504C442.297,79.066,470.7,20.649,470.7,20.649s-58.629,28.508-214.7,175.923
		C268.555,208.431,281.741,221.06,295.577,234.504z"/>
</g>
</svg>
