<?xml version="1.0" encoding="utf-8"?>
<!-- Generator: Adobe Illustrator 15.0.0, SVG Export Plug-In . SVG Version: 6.00 Build 0)  -->
<!DOCTYPE svg PUBLIC "-//W3C//DTD SVG 1.1//EN" "http://www.w3.org/Graphics/SVG/1.1/DTD/svg11.dtd">
<svg version="1.1" id="Layer_1" xmlns="http://www.w3.org/2000/svg" xmlns:xlink="http://www.w3.org/1999/xlink" x="0px" y="0px"
	 width="512px" height="512px" viewBox="0 0 512 512" enable-background="new 0 0 512 512" xml:space="preserve">
<g>
	<path fill-rule="evenodd" clip-rule="evenodd" d="M95.189,205.49c20.931-28.63,25.583-47.94,1.153-72.825
		c-40.219-40.975-60.61-44.937-77.889-0.23c-16.098,41.624-9.377,57.873,15.205,85.962C53.846,241.475,68.223,242.361,95.189,205.49
		z"/>
	<path fill-rule="evenodd" clip-rule="evenodd" d="M164.088,165.156c-19.807-38.85-23.732-87.021,8.989-96.327
		c54.862-15.586,73.466-27.254,98.409-47.702c34.564-28.342,66.371-6.223,66.371,14.052c0,20.282-8.945,17.776-22.587,38.49
		c-6.224,9.45-4.38,26.275-2.996,49.777c1.383,23.501-10.603,43.784-58.535,59.688C234.486,189.515,179.761,195.882,164.088,165.156
		z"/>
	<path fill-rule="evenodd" clip-rule="evenodd" d="M394.088,288.219c-7.146-0.691-23.913-1.858-45.168-24.885
		c-11.063-11.985-28.097-58.823-4.84-96.795c10.076-16.458,25.115-39.405,24.654-54.84c-0.943-31.547-0.23-49.784,40.327-49.784
		c40.565,0,37.569,17.517,43.101,54.394c5.531,36.862,22.119,40.55,22.119,58.988c0,18.439-7.146,18.9-10.135,35.495
		c-2.968,16.422-5.301,29.956-14.52,44.707C440.406,270.248,419.779,290.703,394.088,288.219z"/>
	<path fill-rule="evenodd" clip-rule="evenodd" d="M457.463,324.174c27.716-0.281,61.992,4.38,35.026,38.944
		c-19.837,25.433-29.726,42.401-58.305,41.94c-32.196-0.519-44.016-33.412-28.112-54.617
		C428.026,321.17,434.646,324.404,457.463,324.174z"/>
	<path fill-rule="evenodd" clip-rule="evenodd" d="M24.669,352.746c-1.153-48.163,37.828-80.128,87.345-83.65
		c55.071-3.918,58.989-63.605,146.333-7.605c75.671,48.51,86.654,67.985,81.814,114.535c-4.531,43.583,56.641,62.475,15.665,107.62
		c-27.131,29.897-129.048,29.033-156.706-13.367c-27.658-42.401-56.461-55.079-84.803-59.227
		C48.646,401.442,25.771,398.973,24.669,352.746z"/>
</g>
</svg>
