<?xml version="1.0" encoding="utf-8"?>
<!-- Generator: Adobe Illustrator 15.0.0, SVG Export Plug-In . SVG Version: 6.00 Build 0)  -->
<!DOCTYPE svg PUBLIC "-//W3C//DTD SVG 1.1//EN" "http://www.w3.org/Graphics/SVG/1.1/DTD/svg11.dtd">
<svg version="1.1" id="Layer_1" xmlns="http://www.w3.org/2000/svg" xmlns:xlink="http://www.w3.org/1999/xlink" x="0px" y="0px"
	 width="512px" height="512px" viewBox="0 0 512 512" enable-background="new 0 0 512 512" xml:space="preserve">
<path d="M239.62,453.981c-80.538-45.757-138.065-88.845-175.868-131.716C24.891,278.193,6,233.664,6,186.133
	c0-38.714,10.496-70.8,31.195-95.367c20.435-24.25,45.283-34.578,62.531-38.971c8.029-2.044,17.742-3.083,28.869-3.083
	c15.115,0,30.782,1.958,42.985,5.371c39.651,11.09,65.373,36.402,84.421,60.64c19.046-24.238,44.768-49.55,84.419-60.64
	c12.202-3.413,27.871-5.371,42.986-5.371c11.127,0,20.839,1.038,28.866,3.083c17.249,4.393,42.099,14.721,62.532,38.971
	C495.503,115.333,506,147.419,506,186.133c0,47.531-18.892,92.06-57.753,136.132c-37.803,42.871-95.329,85.956-175.868,131.716
	l-16.377,9.306L239.62,453.981z"/>
</svg>
