<?xml version="1.0" encoding="utf-8"?>
<!-- Generator: Adobe Illustrator 15.0.0, SVG Export Plug-In . SVG Version: 6.00 Build 0)  -->
<!DOCTYPE svg PUBLIC "-//W3C//DTD SVG 1.1//EN" "http://www.w3.org/Graphics/SVG/1.1/DTD/svg11.dtd">
<svg version="1.1" id="Layer_1" xmlns="http://www.w3.org/2000/svg" xmlns:xlink="http://www.w3.org/1999/xlink" x="0px" y="0px"
	 width="512px" height="512px" viewBox="0 0 512 512" enable-background="new 0 0 512 512" xml:space="preserve">
<path d="M474.807,90.766c-20.435-24.25-45.284-34.579-62.532-38.971c-8.028-2.045-17.74-3.083-28.868-3.083
	c-15.114,0-30.782,1.958-42.985,5.371c-39.65,11.09-65.374,36.402-84.42,60.64c-19.048-24.238-44.771-49.55-84.422-60.64
	c-12.202-3.413-27.87-5.371-42.985-5.371c-11.127,0-20.84,1.038-28.869,3.083c-17.248,4.393-42.097,14.721-62.531,38.971
	C16.496,115.333,6,147.419,6,186.133c0,47.531,18.891,92.061,57.752,136.133c37.803,42.871,95.331,85.959,175.869,131.717
	l16.381,9.306l16.377-9.306c80.538-45.76,138.064-88.846,175.869-131.717C487.11,278.193,506,233.664,506,186.133
	C506,147.419,495.504,115.333,474.807,90.766z M385.769,280.833c-27.573,31.271-70.088,63.424-129.769,98.11
	c-59.682-34.688-102.196-66.84-129.77-98.11c-25.428-28.836-37.788-56.825-37.788-85.566c0-50.252,27.85-64.848,44.451-69.076
	c2.856-0.728,7.706-1.163,12.972-1.163c8.573,0,17.798,1.091,24.079,2.847c28.875,8.078,45.173,31.164,60.934,53.49
	c2.996,4.244,6.094,8.633,9.188,12.771l15.934,21.315l15.934-21.315c3.093-4.138,6.191-8.526,9.187-12.771
	c15.762-22.326,32.059-45.412,60.934-53.489c6.281-1.756,15.507-2.848,24.079-2.848c5.267,0,10.115,0.435,12.973,1.163
	c16.601,4.228,44.451,18.824,44.451,69.076C423.559,224.008,411.198,251.997,385.769,280.833z"/>
</svg>
