<?xml version="1.0" encoding="utf-8"?>
<!-- Generator: Adobe Illustrator 15.0.0, SVG Export Plug-In . SVG Version: 6.00 Build 0)  -->
<!DOCTYPE svg PUBLIC "-//W3C//DTD SVG 1.1//EN" "http://www.w3.org/Graphics/SVG/1.1/DTD/svg11.dtd">
<svg version="1.1" id="Layer_1" xmlns="http://www.w3.org/2000/svg" xmlns:xlink="http://www.w3.org/1999/xlink" x="0px" y="0px"
	 width="512px" height="512px" viewBox="0 0 512 512" enable-background="new 0 0 512 512" xml:space="preserve">
<path d="M2.08,202.793c18.708,0,153.621-106.681,253.901-106.681c100.281,0,234.837,106.681,253.901,106.681
	c19.061,0-211.229-172.823-253.901-172.823S-16.627,202.793,2.08,202.793z"/>
<path d="M212.775,172.323c-5.943-2.378,29.871-50.006,43.206-50.006c12.269,0,47.413,47.896,42.139,50.006
	C255.448,189.392,255.448,189.392,212.775,172.323z"/>
<g>
	<path d="M178.714,234.758c-41.017-11.823-57.086-30.813-61.418-35.145c-6.401-6.401-38.405-21.336-38.405,0
		c0,13.918,51.789,60.465,124.99,77.173C197.897,258.376,188.476,244.854,178.714,234.758z"/>
	<path d="M394.666,199.613c-4.342,4.34-20.469,23.399-61.673,35.217c-9.645,9.953-18.91,23.237-24.728,41.266
		c73.357-18.859,124.806-71.246,124.806-76.483C433.072,178.277,401.068,193.212,394.666,199.613z"/>
</g>
<path d="M155.701,179.323c0,6.401,55.074,23.47,74.677,89.612c25.9,87.391,0,209.094,25.604,209.094
	c25.604,0,0.353-121.514,25.604-209.094c19.069-66.143,74.677-83.073,74.677-89.612c0-14.935-74.677,23.47-100.281,23.47
	C230.378,202.793,155.701,164.388,155.701,179.323z"/>
</svg>
