<?xml version="1.0" encoding="utf-8"?>
<!-- Generator: Adobe Illustrator 16.0.0, SVG Export Plug-In . SVG Version: 6.00 Build 0)  -->
<!DOCTYPE svg PUBLIC "-//W3C//DTD SVG 1.1//EN" "http://www.w3.org/Graphics/SVG/1.1/DTD/svg11.dtd">
<svg version="1.1" id="Layer_1" xmlns="http://www.w3.org/2000/svg" xmlns:xlink="http://www.w3.org/1999/xlink" x="0px" y="0px"
	 width="512px" height="512px" viewBox="0 0 512 512" enable-background="new 0 0 512 512" xml:space="preserve">
<path d="M440.196,7.851c-32.434-22.491-75.547-1.456-103.939,16.217c-63.951,39.807-62.178,89.155-84.604,114.854
	c-3.686-8.109,55.116-114.854-25.236-24.919c-32.712,36.613-38.569,96.234-48.628,111.323
	c-7.371-12.532,53.789-157.764-37.62,11.785c-6.043,11.209-29.94,73.476-27.692,104.442c-17.167,32.252-45.09,92.389-48.974,134.402
	c-3.801,41.129,5.318,54.656,16.218,11.057c9.833-39.332,40.899-106.516,57.288-132.949c19.632-9.117,50.355-31.822,77.261-54.02
	c105.768-87.259,31.314-36.395,6.25-42.291c11.795-8.663,62.918-18.379,80.352-35.385c89.934-87.723,0.736-21.378-20.023-25.801
	c31.328-19.688,66.934-23.308,94.477-50.127c56.025-54.551-8.846-11.795-35.383-13.269c21.795-11.524,61.922-20.641,84.037-42.019
	C440.977,74.72,461.666,22.738,440.196,7.851z"/>
</svg>
