<?xml version="1.0" encoding="utf-8"?>
<!-- Generator: Adobe Illustrator 15.0.0, SVG Export Plug-In . SVG Version: 6.00 Build 0)  -->
<!DOCTYPE svg PUBLIC "-//W3C//DTD SVG 1.1//EN" "http://www.w3.org/Graphics/SVG/1.1/DTD/svg11.dtd">
<svg version="1.1" id="Layer_1" xmlns="http://www.w3.org/2000/svg" xmlns:xlink="http://www.w3.org/1999/xlink" x="0px" y="0px"
	 width="512px" height="512px" viewBox="0 0 512 512" enable-background="new 0 0 512 512" xml:space="preserve">
<path fill-rule="evenodd" clip-rule="evenodd" d="M438.784,267.779c-15.555,51.714-77.24,117.443-174.197,59.113
	c64.279,72.588,175.574,46.871,242.777-3.934c-65.664,108.232-271.788,159.33-297.319,11.656
	c-6.737,30.114-2.22,67.057,34.715,103.815c-51.713-15.556-117.446-77.248-59.117-174.197
	c-72.584,64.279-46.867,175.567,3.941,242.776C81.407,441.376,30.306,235.435,177.701,209.732
	c-30.084-6.689-66.968-2.128-103.668,34.744c15.559-51.71,77.248-117.443,174.201-59.117
	c-64.279-72.58-175.571-46.863-242.777,3.942C71.12,81.068,277.248,29.967,302.774,177.637c6.741-30.11,2.221-67.052-34.715-103.811
	c51.714,15.555,117.45,77.248,59.121,174.201c72.58-64.283,46.863-175.571-3.941-242.777
	c108.174,65.627,159.279,271.572,11.884,297.274C365.207,309.213,402.091,304.656,438.784,267.779z"/>
</svg>
