<?xml version="1.0" encoding="utf-8"?>
<!-- Generator: Adobe Illustrator 15.0.0, SVG Export Plug-In . SVG Version: 6.00 Build 0)  -->
<!DOCTYPE svg PUBLIC "-//W3C//DTD SVG 1.1//EN" "http://www.w3.org/Graphics/SVG/1.1/DTD/svg11.dtd">
<svg version="1.1" id="Layer_1" xmlns="http://www.w3.org/2000/svg" xmlns:xlink="http://www.w3.org/1999/xlink" x="0px" y="0px"
	 width="512px" height="512px" viewBox="0 0 512 512" enable-background="new 0 0 512 512" xml:space="preserve">
<path d="M360.249,262.506c0.064,0.011,0.141,0.017,0.204,0.025C362.426,259.417,362.088,259.814,360.249,262.506z"/>
<path d="M99.543,325.257c-4.022-8.558-6.615-19.232-6.615-32.558c0-14.326,2.959-26.333,7.678-36.576
	C71.094,241.697,1,254.398,1,292.699C1,322.99,14.681,244.063,99.543,325.257z"/>
<path d="M136.636,210.385c5.158-4.524,9.271-8.245,12.491-11.62c-23.456-30.607-53.001-59.264-53.001-53.151
	c0,30.513,3.27,70.839,5.28,107.04C110.397,233.42,124.893,220.686,136.636,210.385z"/>
<path d="M326.346,176.523c0-22.383,13.234-38.068,0-31.176c-12.239,6.375-35.133,17.319-42.391,41.834
	c3.488-111.913,51.696-126.834,25.338-126.834c-6.521,0-22.049,11.309-25.729,12.408c-1.5-23.157-14.53-24.71-27.563-50.778
	c-13.035,26.067-26.064,27.621-27.565,50.778c-3.679-1.099-19.206-12.408-25.727-12.408c-30.555,0,20.784,14.922,25.309,126.763
	c-7.261-24.46-30.136-35.395-42.363-41.763c-13.234-6.893,0,8.793,0,31.176c0,54.357-66.082,54.357-66.082,116.176
	c0,49.028,47.563,42.634,76.74,42.634c19.348,0,29.907-18.752,34.826-45.682c0.854,45.671,4.974,45.682,24.861,45.682
	c19.929,0,24.331-0.007,25.305-43.352c5.096,25.676,15.596,43.352,34.382,43.352c29.178,0,76.74,6.395,76.74-42.634
	C392.428,230.881,326.346,230.881,326.346,176.523z"/>
<path d="M375.365,210.385c11.777,10.331,26.323,23.113,35.309,42.439c2.01-36.245,5.29-76.648,5.29-107.21
	c0-6.117-29.579,22.579-53.039,53.204C366.139,202.178,370.237,205.884,375.365,210.385z"/>
<path d="M412.006,255.838c3.762,8.97,6.315,19.301,6.915,31.364c0.007,0.133,0.016,0.265,0.022,0.397
	c0.027,0.599,0.054,1.198,0.07,1.805c0.035,1.086,0.061,2.182,0.061,3.295c0,34.72-17.563,51.506-32.297,59.475
	c-16.419,8.879-35.096,10.078-51.197,10.078c-0.004,0-0.004,0-0.007,0c-3.918,0-7.64-0.075-11.238-0.149
	c-3.093-0.063-6.017-0.124-8.648-0.124c-7.503,0-17.451-1.498-27.286-7.458c-10.658,7.458-23.296,7.458-32.399,7.458
	c-9.105,0-21.689,0-32.256-7.549c-9.859,6.025-19.854,7.549-27.431,7.549c-2.63,0-5.552,0.061-8.646,0.124
	c-3.599,0.074-7.321,0.149-11.241,0.149c-16.104,0-34.779-1.197-51.204-10.08c-0.519-0.281-1.044-0.576-1.568-0.879
	c-0.159-0.092-0.319-0.188-0.478-0.282c-0.378-0.222-0.755-0.448-1.134-0.682c-0.176-0.109-0.352-0.219-0.528-0.33
	c-0.386-0.244-0.774-0.495-1.163-0.752c-0.15-0.1-0.298-0.197-0.45-0.298c-0.517-0.35-1.036-0.708-1.554-1.082
	c-0.015-0.01-0.029-0.021-0.045-0.029c-0.571-0.412-1.142-0.84-1.71-1.28c-0.031-0.024-0.063-0.051-0.093-0.074
	c-0.517-0.401-1.034-0.819-1.546-1.247c-0.089-0.072-0.176-0.148-0.264-0.222c-0.48-0.404-0.957-0.82-1.431-1.246
	c-0.071-0.063-0.143-0.127-0.212-0.192c-2.231-2.024-4.399-4.312-6.439-6.884c-0.016-0.02-0.029-0.036-0.044-0.055
	c-2.062-2.608-3.984-5.514-5.703-8.745c-0.004-0.01-0.008-0.018-0.014-0.025c-0.429-0.808-0.844-1.635-1.245-2.484
	c-47.636-7.645-87.945,8.311-87.945,67.505c0,34.323,20.94-35.863,98.306-29.987c-9.579,8.598-15.97,18.638-15.97,29.987
	c0,36.45,14.28,51.16,19.584,51.16c4.336,0,5.55-26.477,49.467-41.66c27.339,34.063,73.483,73.635,92.956,73.635
	c19.519,0,65.837-39.76,93.15-73.877c44.619,15.142,45.822,41.902,50.183,41.902c5.305,0,19.585-14.71,19.585-51.16
	c0-12.398-7.624-23.234-18.704-32.33c73.622-2.85,93.731,63.889,93.731,30.253c0-55.065-34.883-72.715-78.095-68.754
	C497.689,246.162,511,322.582,511,292.699C511.002,254.659,441.86,241.874,412.006,255.838z"/>
</svg>
