<?xml version="1.0" encoding="utf-8"?>
<!-- Generator: Adobe Illustrator 16.0.0, SVG Export Plug-In . SVG Version: 6.00 Build 0)  -->
<!DOCTYPE svg PUBLIC "-//W3C//DTD SVG 1.1//EN" "http://www.w3.org/Graphics/SVG/1.1/DTD/svg11.dtd">
<svg version="1.1" id="Layer_1" xmlns="http://www.w3.org/2000/svg" xmlns:xlink="http://www.w3.org/1999/xlink" x="0px" y="0px"
	 width="512px" height="512px" viewBox="0 0 512 512" enable-background="new 0 0 512 512" xml:space="preserve">
<path d="M470.99,160.182c3.305-13.915,4.343-31.206-2.658-38.009c-2.078-2.019-4.548-3.861-7.342-5.473
	c-12.359-7.136-32.149-10.184-50.627,2.662c-19.336,13.443-48.461,41.971-71.863,64.893c-15.749,15.428-33.556,32.869-37.98,34.992
	c-2.874-0.077-5.254-0.81-7.56-1.52c-3.024-0.932-6.153-1.895-9.493-0.816c-0.863,0.278-7.593,4.051-18.343,10.333
	c0.064-12.451-0.034-20.166-0.224-21.053c-0.736-3.43-3.136-5.658-5.454-7.813c-1.768-1.641-3.593-3.335-5.096-5.786
	c-0.373-4.895,5.829-29.036,11.313-50.389c8.15-31.728,18.293-71.214,20.267-94.682c1.887-22.424-10.648-38.04-23.007-45.175
	c-2.794-1.613-5.624-2.832-8.411-3.622c-9.393-2.661-23.849,6.883-34.246,16.703c-8.588,8.112-24.179,25.62-32.112,51.741
	c-10.8,35.568-3.463,61.555,2.996,78.01c2.371,6.039,6.072,13.38,9.991,21.151c5.841,11.583,12.461,24.713,16.244,36.62
	c1.124,3.541,2.023,22.854,2.727,51.232c-53.413,32.575-127.058,79.474-165.438,111.104c-8.438,6.954-13.578,29.993-14.136,32.599
	l-2.085,9.726l8.613-4.976c52.769-30.48,120.412-69.123,173.974-99.032c0.879,61.341,1.234,139.242,1.223,200.182l-0.002,9.947
	l7.381-6.669c1.976-1.786,19.358-17.757,21.162-28.541c8.202-49.054,11.995-136.282,13.5-198.826
	c24.927-13.579,42.102-22.457,45.73-23.254c12.204-2.678,26.884-3.51,39.836-4.243c8.689-0.492,16.897-0.956,23.313-1.923
	c17.479-2.634,43.653-9.274,69.057-36.411C460.892,193.931,468.259,171.675,470.99,160.182z M230.568,166.251
	c-0.53,0.223-1.197,0.401-2.415-0.301c-2.245-1.296-4.835-4.693-7.292-9.566c-3.684-7.304-7.159-14.196-9.154-19.277
	c-5.254-13.386-11.222-34.538-2.42-63.521c4.406-14.512,12.824-28.613,23.701-39.705c7.63-7.778,14.361-11.834,17.519-13.129
	c0.452,0.214,0.913,0.458,1.372,0.722c6.49,3.747,13.062,12.071,12.041,24.197c-1.817,21.616-11.702,60.1-19.646,91.022
	C238.091,160.771,232.629,165.385,230.568,166.251z M426.112,198.768c-20.701,22.115-42.001,27.522-56.222,29.665
	c-5.397,0.813-13.104,1.25-21.272,1.711c-5.447,0.309-9.683-0.235-11.929-1.531c-1.217-0.703-1.396-1.371-1.469-1.941
	c-0.28-2.218,0.984-9.254,18.744-26.65c22.81-22.34,51.194-50.143,69.006-62.525c9.992-6.947,20.487-5.417,26.977-1.67
	c0.457,0.264,0.898,0.543,1.31,0.828c0.458,3.382,0.311,11.238-2.61,21.736C444.479,173.355,436.477,187.696,426.112,198.768z"/>
</svg>
