<?xml version="1.0" encoding="utf-8"?>
<!-- Generator: Adobe Illustrator 15.0.0, SVG Export Plug-In . SVG Version: 6.00 Build 0)  -->
<!DOCTYPE svg PUBLIC "-//W3C//DTD SVG 1.1//EN" "http://www.w3.org/Graphics/SVG/1.1/DTD/svg11.dtd">
<svg version="1.1" id="Layer_1" xmlns="http://www.w3.org/2000/svg" xmlns:xlink="http://www.w3.org/1999/xlink" x="0px" y="0px"
	 width="512px" height="512px" viewBox="0 0 512 512" enable-background="new 0 0 512 512" xml:space="preserve">
<g>
	<g>
		<path d="M69.067,102.83l84.948,84.948c0,0,0,0-7.8,7.8c-7.8,7.798-40.108,31.636-22.173,49.572
			c17.938,17.936,49.078-22.669,49.078-22.669c6.007,6.007,12.067,11.977,18.165,17.902l53.791-53.8
			c-5.926-6.095-11.892-12.153-17.899-18.158c0,0,40.356-30.89,22.419-48.827c-17.904-17.907-58.22,30.791-49.364,21.964
			c-3.407,3.407-8.994,8.993-8.994,8.993l-84.948-84.947c0,0-0.432-89.747-62.958-27.22
			C-19.196,100.914,69.067,102.83,69.067,102.83z"/>
		<path d="M255.49,300.139c124.843,111.643,245.212,195.618,245.212,195.618s-84.14-120.198-195.839-244.976L255.49,300.139z"/>
	</g>
	<path d="M465.164,93.496l-15.611,15.613l-20.215-20.212l15.752-15.473l-24.85-24.851L285.757,183.183
		c0.015,0.014,0.026,0.027,0.04,0.042L128.944,340.105c-13.139-8.689-28.869-13.785-45.805-13.786
		c-45.914,0-83.137,37.225-83.14,83.145c0.003,45.92,37.226,83.144,83.141,83.144c45.918,0.001,83.14-37.224,83.14-83.145
		c0.001-16.392-4.806-31.628-12.997-44.506l156.283-156.242c0.018,0.019,0.034,0.037,0.052,0.056l73.022-72.899l20.072,20.071
		l-15.61,15.613l46.835,46.836l31.225-31.224l-15.611-15.612l-15.611,15.612l-15.611-15.612l15.609-15.613l-35.682-35.684
		l15.61-15.612l35.687,35.684l15.611-15.611l15.611,15.612l-15.611,15.611l15.611,15.613L512,140.332L465.164,93.496z
		 M83.14,456.575c-26.017,0-47.108-21.091-47.109-47.111c0.001-26.021,21.093-47.112,47.11-47.112
		c26.022,0,47.111,21.092,47.111,47.111C130.252,435.484,109.162,456.575,83.14,456.575z"/>
</g>
</svg>
