<?xml version="1.0" encoding="utf-8"?>
<!-- Generator: Adobe Illustrator 15.0.0, SVG Export Plug-In . SVG Version: 6.00 Build 0)  -->
<!DOCTYPE svg PUBLIC "-//W3C//DTD SVG 1.1//EN" "http://www.w3.org/Graphics/SVG/1.1/DTD/svg11.dtd">
<svg version="1.1" id="Layer_1" xmlns="http://www.w3.org/2000/svg" xmlns:xlink="http://www.w3.org/1999/xlink" x="0px" y="0px"
	 width="512px" height="512px" viewBox="0 0 512 512" enable-background="new 0 0 512 512" xml:space="preserve">
<path d="M521,51.146c0-13.019-76.072,15.366-143.753,43.198c-30.014-18.146-74.229-18.153-99.692-18.153
	c-11.757,0,0.004-18.392-21.552-18.392c-21.555,0-9.802,18.392-21.559,18.392c-25.462,0-69.676,0.009-99.691,18.153
	C67.07,66.513-9,38.127-9,51.146c0,11.688,78.318,56.064,115.982,76.73c-0.221,0.65-0.432,1.311-0.636,1.977
	C72.235,115.555,7.353,89.76,7.353,100.433c0,11.566,68.307,50.3,95.798,65.423c0,0.809,0,1.614,0,2.409
	c-23.163-7.399-73.993-22.303-73.993-10.595c0,9.121,41.178,28.966,73.993,43.333c0,45.72,0,51.713,0,51.713
	c-0.069,15.137,0,42.289,0,58.788c0,52.908,90.142,141.335,125.413,164.605c0,0,0-200.734,0-223.393
	c-35.272-5.879-82.302-39.192-82.302-58.787c47.031,0,82.302,19.595,82.302,19.595c0-8.818,3.354-19.595,27.434-19.595
	c24.082,0,27.435,10.777,27.435,19.595c0,0,35.273-19.595,82.302-19.595c0,19.595-47.029,52.908-82.302,58.787
	c0,21.679,0,223.393,0,223.393c35.273-23.271,125.413-111.697,125.413-164.606c0-17.89-0.043-45.335,0-58.788c0,0,0-7.39,0-51.712
	c32.816-14.367,73.995-34.212,73.995-43.334c0-11.708-50.835,3.197-73.995,10.597c0-0.792,0-1.602,0-2.408
	c27.489-15.121,95.8-53.858,95.8-65.425c0-10.674-64.885,15.123-98.996,29.421c-0.203-0.667-0.414-1.326-0.636-1.977
	C442.68,107.212,521,62.835,521,51.146z"/>
</svg>
