<?xml version="1.0" encoding="utf-8"?>
<!-- Generator: Adobe Illustrator 15.0.0, SVG Export Plug-In . SVG Version: 6.00 Build 0)  -->
<!DOCTYPE svg PUBLIC "-//W3C//DTD SVG 1.1//EN" "http://www.w3.org/Graphics/SVG/1.1/DTD/svg11.dtd">
<svg version="1.1" id="Layer_1" xmlns="http://www.w3.org/2000/svg" xmlns:xlink="http://www.w3.org/1999/xlink" x="0px" y="0px"
	 width="512px" height="512px" viewBox="0 0 512 512" enable-background="new 0 0 512 512" xml:space="preserve">
<path d="M503.135,246.455L265.545,8.867c-5.272-5.272-13.817-5.272-19.092,0L8.866,246.455c-5.273,5.272-5.275,13.82,0,19.092
	l51.083,51.084l161.513-161.512c9.228-9.225,21.492-14.305,34.537-14.305c13.044,0,25.312,5.08,34.533,14.304l151.172,151.173
	c3.561,3.56,10.354,10.355,10.354,10.355l51.072-51.102C508.405,260.273,508.406,251.728,503.135,246.455z"/>
<path d="M387.168,299.481c-2.187,4.131-5,7.959-8.398,11.358l-89.361,89.356c-8.922,8.925-20.788,13.842-33.408,13.842
	c-12.623,0-24.491-4.917-33.414-13.844l-89.358-89.358c-3.439-3.438-6.23-7.276-8.385-11.365l-41.358,41.357l161.843,161.839
	c5.894,5.894,15.45,5.894,21.343,0l161.841-161.839L387.168,299.481z"/>
</svg>
