<?xml version="1.0" encoding="utf-8"?>
<!-- Generator: Adobe Illustrator 15.0.0, SVG Export Plug-In . SVG Version: 6.00 Build 0)  -->
<!DOCTYPE svg PUBLIC "-//W3C//DTD SVG 1.1//EN" "http://www.w3.org/Graphics/SVG/1.1/DTD/svg11.dtd">
<svg version="1.1" id="Layer_1" xmlns="http://www.w3.org/2000/svg" xmlns:xlink="http://www.w3.org/1999/xlink" x="0px" y="0px"
	 width="512px" height="512px" viewBox="0 0 512 512" enable-background="new 0 0 512 512" xml:space="preserve">
<path d="M503.135,246.455L265.545,8.867c-5.272-5.272-13.817-5.272-19.092,0L8.866,246.455c-5.273,5.272-5.275,13.82,0,19.092
	l51.083,51.085l161.513-161.513c9.228-9.225,21.492-14.305,34.537-14.305c13.044,0,25.312,5.08,34.533,14.304l151.172,151.173
	c3.561,3.56,10.354,10.355,10.354,10.355l51.072-51.102C508.405,260.273,508.406,251.728,503.135,246.455z"/>
<path d="M390.475,85.486l37.462,37.461C523.591,11.552,544-32.933,544-32.933S500.774-10.923,390.475,85.486z"/>
<path d="M129.86,434.348l-50.015-50.014c-1.093,1.092-1.803,1.803-2.083,2.083l-67.41-67.395l-41.189,41.137l73.683,73.682
	l-71.805,71.8l37.512,37.513l71.798-71.799l73.584,73.577l41.173-41.167l-67.335-67.333
	C127.775,436.433,128.502,435.706,129.86,434.348z"/>
<path d="M387.168,299.481c-2.187,4.131-5,7.959-8.398,11.358l-89.361,89.356c-8.922,8.925-20.788,13.842-33.408,13.842
	c-12.623,0-24.491-4.917-33.414-13.844l-89.358-89.358c-3.439-3.438-6.23-7.276-8.385-11.365l-41.358,41.357l161.843,161.839
	c5.894,5.894,15.45,5.894,21.343,0l161.841-161.839L387.168,299.481z"/>
<path d="M85.486,122.104l37.461-37.461C11.552-11.011-32.932-31.419-32.932-31.419S-10.924,11.805,85.486,122.104z"/>
<path d="M434.347,382.723l-50.015,50.015c1.094,1.092,1.805,1.804,2.085,2.084l-67.396,67.41l41.138,41.188l73.681-73.685
	l71.799,71.804l37.514-37.512l-71.798-71.798l73.576-73.584l-41.167-41.173l-67.332,67.334
	C436.433,384.806,435.706,384.079,434.347,382.723z"/>
</svg>
