<?xml version="1.0" encoding="utf-8"?>
<!-- Generator: Adobe Illustrator 16.0.0, SVG Export Plug-In . SVG Version: 6.00 Build 0)  -->
<!DOCTYPE svg PUBLIC "-//W3C//DTD SVG 1.1//EN" "http://www.w3.org/Graphics/SVG/1.1/DTD/svg11.dtd">
<svg version="1.1" id="Layer_1" xmlns="http://www.w3.org/2000/svg" xmlns:xlink="http://www.w3.org/1999/xlink" x="0px" y="0px"
	 width="512px" height="512px" viewBox="0 0 512 512" enable-background="new 0 0 512 512" xml:space="preserve">
<path d="M200.427,153.585c45.164-45.164,80.212-80.212,88.129-88.13c7.918-7.916-5.542-19.397-30.085-30.085
	c-24.544-10.688-93.522-18.902-112.425,0C127.144,54.273,16.599,164.816,11.454,169.963c-5.146,5.146,81.35,91.245,86.297,86.297
	c1.831-1.83,28.428-28.428,61.211-61.21c9.057,5.725,19.105-0.19,24.294,4.999c5.542,5.542,3.167,18.208,6.729,21.772
	c3.563,3.563,220.891,220.889,225.244,225.245c4.355,4.354,13.459-0.792,18.605,4.354s0.973,19.973,7.522,26.522
	c18.208,18.21,38.794-3.166,38.794-3.166s21.377-20.585,3.167-38.795c-6.55-6.55-21.377-2.375-26.523-7.521
	c-5.146-5.146,0-14.251-4.354-18.605C448.087,405.5,230.76,188.172,227.198,184.61c-3.563-3.563-16.23-1.188-21.772-6.73
	C200.236,172.691,206.151,162.643,200.427,153.585z"/>
<path d="M183.328,369.752c2.412-2.412,7.362-7.363,47.44-47.441C452.486,100.594,491.351,20.649,491.351,20.649
	s-79.945,38.866-301.66,260.582c-40.079,40.08-45.031,45.029-47.441,47.441c0,0-61.836-27.412-61.836-71.725
	c0,0-20.459,37.064-20.459,47.289c0,10.223,54.271,52.115,54.271,62.754c0,10.637-39.193,54.42-61.481,61.477
	c-12.938,4.098-32.096,8.252-32.095,26.438c0,9.094,4.517,18.268,11.32,25.127c6.858,6.803,16.032,11.32,25.126,11.32
	c18.186,0,22.341-19.158,26.437-32.096c7.057-22.289,50.84-61.48,61.479-61.48s52.529,54.27,62.754,54.27
	c10.224,0,47.288-20.457,47.288-20.457C210.74,431.588,183.328,369.752,183.328,369.752z"/>
</svg>
