<?xml version="1.0" encoding="utf-8"?>
<!-- Generator: Adobe Illustrator 15.0.0, SVG Export Plug-In . SVG Version: 6.00 Build 0)  -->
<!DOCTYPE svg PUBLIC "-//W3C//DTD SVG 1.1//EN" "http://www.w3.org/Graphics/SVG/1.1/DTD/svg11.dtd">
<svg version="1.1" id="Layer_1" xmlns="http://www.w3.org/2000/svg" xmlns:xlink="http://www.w3.org/1999/xlink" x="0px" y="0px"
	 width="512px" height="512px" viewBox="0.5 792.5 512 512" enable-background="new 0.5 792.5 512 512" xml:space="preserve">
<g transform="matrix(1 0 0 -1 0 1638)">
	<path d="M183.543,357.281c-4.983,3.796-9.847,8.186-14.592,13.168c-24.438,24.2-36.657,53.502-36.657,87.904
		c0,34.403,12.219,63.823,36.657,88.262c5.457,5.457,11.27,10.32,17.438,14.592c0-0.237,0.119-0.356,0.356-0.356
		c-4.033-13.761-6.88-28.115-8.541-43.063c-3.322-32.268-0.475-62.756,8.541-91.464c4.508-7.593,10.084-14.711,16.727-21.354
		c13.999-13.999,30.725-21.354,50.181-22.065c-6.643-3.797-13.643-7.236-20.998-10.321
		C216.284,365.467,199.913,360.365,183.543,357.281z M202.049,549.106c9.965-7.118,20.167-13.287,30.606-18.507
		c-10.677-3.796-20.404-9.965-29.183-18.506c-3.322-3.559-6.288-7.118-8.897-10.677c0.237,4.745,0.593,9.49,1.068,14.235
		C197.066,527.278,199.202,538.43,202.049,549.106z M332.661,458.354c0,12.575-2.729,24.201-8.186,34.878
		c6.169-3.796,12.219-7.83,18.15-12.101c14.71-10.677,27.403-22.54,38.08-35.589c-2.609-28.946-14.473-53.977-35.589-75.093
		c-24.438-24.438-53.858-36.657-88.261-36.657c-18.269,0-35.115,3.44-50.537,10.321c11.151,3.084,22.303,7.117,33.454,12.1
		c29.658,13.287,54.689,30.963,75.093,53.028C326.73,423.239,332.661,439.61,332.661,458.354z M352.947,641.994
		c-4.033-23.015-8.956-38.852-14.77-47.512c-5.813-8.66-11.092-14.65-15.837-17.973c-11.863,4.033-24.675,8.186-38.436,12.456
		c7.592,5.932,13.287,10.796,17.083,14.592c11.863,11.863,17.795,26.218,17.795,43.063c0,8.305-1.424,15.896-4.271,22.777
		C327.797,662.043,340.61,652.908,352.947,641.994z M215.217,603.558c4.745-4.745,10.083-8.897,16.015-12.456
		c13.287-5.932,27.759-11.566,43.418-16.905c15.659-5.338,32.386-12.396,50.181-21.175c19.455-8.779,34.166-21.947,44.131-39.504
		c6.406-12.813,10.32-26.692,11.744-41.64c-8.304,8.304-17.438,16.015-27.403,23.133c-22.065,16.134-45.198,27.878-69.399,35.233
		c-29.895,9.728-51.249,18.743-64.061,27.048c-12.812,8.304-22.421,15.659-28.827,22.065c-18.506,18.506-27.76,40.927-27.76,67.263
		c0,23.727,7.592,44.25,22.777,61.569c-0.475-31.793,5.457-61.688,17.794-89.685C206.913,613.048,210.709,608.065,215.217,603.558z
		 M235.147,702.852c-7.355-3.085-13.999-7.593-19.93-13.524c-3.796-3.796-7-7.829-9.609-12.1c-2.135,14.71-2.61,29.776-1.423,45.198
		C214.386,715.07,224.707,708.546,235.147,702.852z M219.488,799.298c-3.796,7.355-7.118,15.066-9.965,23.133
		c1.423,1.661,6.228,5.635,14.414,11.923c8.186,6.287,19.515,9.905,33.987,10.854c17.083,0,31.793-6.05,44.131-18.15v-0.355
		c-18.744,1.66-37.131,0.948-55.163-2.136v-0.356c-6.881-1.897-13.049-5.575-18.506-11.032
		C224.351,809.145,221.385,804.518,219.488,799.298z M327.323,707.122c12.101-9.253,19.93-22.658,23.489-40.216
		c-22.065,17.083-45.91,29.302-71.535,36.657c-13.287,3.559-24.734,7.533-34.343,11.922c-9.609,4.39-21.413,12.278-35.411,23.667
		c-9.253,12.101-13.88,26.691-13.88,43.774c0,6.881,0.949,13.287,2.847,19.219c6.643-14.948,13.643-28.59,20.998-40.928
		c6.406-6.406,11.092-10.617,14.058-12.635c2.966-2.017,7.177-4.211,12.634-6.584l-0.356-0.711
		c19.218-7.593,35.352-13.168,48.401-16.728C307.274,721.002,318.307,715.189,327.323,707.122z M281.413,745.559
		c2.61,3.321,6.347,7.414,11.21,12.278c4.864,4.863,7.296,13.228,7.296,25.09c0,10.439-3.084,19.456-9.253,27.048
		c8.067-0.475,16.371-1.305,24.913-2.491c3.084-7.592,4.626-15.777,4.626-24.557c0-14.71-5.338-29.895-16.015-45.554
		C296.835,739.745,289.242,742.474,281.413,745.559z"/>
</g>
</svg>
