<?xml version="1.0" encoding="utf-8"?>
<!-- Generator: Adobe Illustrator 15.0.0, SVG Export Plug-In . SVG Version: 6.00 Build 0)  -->
<!DOCTYPE svg PUBLIC "-//W3C//DTD SVG 1.1//EN" "http://www.w3.org/Graphics/SVG/1.1/DTD/svg11.dtd">
<svg version="1.1" id="Layer_1" xmlns="http://www.w3.org/2000/svg" xmlns:xlink="http://www.w3.org/1999/xlink" x="0px" y="0px"
	 width="512px" height="512px" viewBox="0 0 512 512" enable-background="new 0 0 512 512" xml:space="preserve">
<g transform="matrix(1 0 0 -1 0 1638)">
	<path d="M6.07,1638l71.409-262.069L6.07,1126h71.409l53.914,178.521L184.593,1126h71.408l-71.409,249.931L256.001,1638h-71.409
		l-53.199-190.661L77.177,1638H6.07z M291.705,1126v512h71.408c59.506-0.952,98.188-15.115,116.039-42.488
		s26.777-65.101,26.777-113.183c0-47.13-8.926-82.596-26.777-106.398c-17.854-23.804-56.533-35.705-116.039-35.705V1126H291.705z
		 M363.114,1554.452v-142.817c23.805,0,41.654,2.977,53.559,8.926c11.9,5.951,17.852,26.54,17.852,61.77
		c0,39.989-5.951,62.007-17.852,66.053C404.768,1552.429,386.916,1554.452,363.114,1554.452z"/>
</g>
</svg>
